<?xml version="1.0" standalone="no"?>
<!DOCTYPE svg PUBLIC "-//W3C//DTD SVG 20010904//EN"
 "http://www.w3.org/TR/2001/REC-SVG-20010904/DTD/svg10.dtd">
<svg version="1.0" xmlns="http://www.w3.org/2000/svg"
 width="858.000000pt" height="858.000000pt" viewBox="0 0 858.000000 858.000000"
 preserveAspectRatio="xMidYMid meet">
<metadata>
Created by potrace 1.11, written by Peter Selinger 2001-2013
</metadata>
<g transform="translate(0.000000,858.000000) scale(0.100000,-0.100000)"
fill="#000000" stroke="none">
<path d="M4630 8054 c0 -5 -58 -9 -129 -9 -71 0 -128 -2 -126 -5 2 -3 -5 -6
-15 -6 -10 0 -16 4 -14 8 3 4 -6 4 -19 -1 -16 -6 -28 -6 -35 1 -6 6 -12 6 -17
-3 -6 -8 -4 -10 5 -4 9 5 11 4 6 -4 -6 -9 -11 -9 -22 0 -8 6 -14 8 -14 3 0 -5
-28 -10 -63 -11 -105 -3 -170 -12 -179 -25 -6 -10 -8 -10 -8 0 0 8 -5 10 -12
6 -12 -8 -20 -9 -128 -19 -36 -3 -67 -10 -68 -15 -2 -6 -8 -7 -13 -4 -6 3 -16
1 -23 -5 -7 -6 -22 -9 -34 -6 -12 2 -22 1 -22 -3 0 -6 -33 -12 -87 -16 -13 0
-23 -3 -23 -6 0 -4 -10 -7 -22 -7 -44 -3 -94 -14 -186 -44 -51 -16 -97 -29
-102 -29 -5 0 -21 -5 -37 -12 -29 -12 -36 -14 -68 -22 -11 -3 -57 -19 -102
-35 -46 -17 -83 -29 -83 -27 0 2 -26 -9 -57 -25 -31 -15 -60 -26 -65 -23 -4 3
-8 0 -8 -7 0 -7 -3 -10 -6 -6 -3 3 -24 -5 -46 -19 -22 -14 -37 -21 -33 -15 3
7 -10 2 -30 -9 -19 -11 -42 -20 -50 -20 -8 0 -15 -4 -15 -10 0 -5 -6 -10 -13
-10 -8 0 -36 -11 -63 -25 -27 -14 -53 -25 -57 -25 -5 0 -21 -9 -37 -20 -15
-11 -29 -17 -32 -14 -3 2 -11 -2 -18 -11 -7 -8 -17 -15 -22 -15 -6 0 -22 -9
-37 -19 -15 -11 -34 -21 -42 -23 -8 -2 -16 -6 -19 -9 -3 -3 -32 -21 -65 -39
-114 -63 -130 -73 -175 -103 -25 -17 -46 -34 -48 -39 -2 -4 -10 -8 -19 -8 -8
0 -21 -6 -28 -12 -33 -30 -45 -38 -55 -38 -5 0 -10 -4 -10 -8 0 -5 -12 -15
-27 -23 -15 -8 -35 -21 -45 -29 -9 -8 -29 -24 -43 -35 -15 -11 -33 -26 -41
-33 -8 -7 -14 -10 -14 -5 0 4 -4 3 -8 -2 -4 -6 -27 -26 -52 -45 -25 -19 -56
-45 -70 -57 -14 -12 -36 -32 -50 -43 -129 -109 -364 -338 -435 -424 -22 -27
-50 -60 -62 -75 -13 -14 -26 -30 -31 -36 -11 -14 -101 -127 -115 -145 -32 -39
-209 -303 -248 -370 -55 -95 -189 -361 -189 -377 0 -7 -4 -13 -10 -13 -5 0
-10 -4 -10 -10 0 -5 -15 -41 -34 -80 -19 -38 -32 -70 -30 -70 3 0 -3 -14 -12
-31 -9 -17 -18 -43 -20 -57 -3 -14 -8 -30 -12 -36 -3 -6 -8 -19 -9 -29 -2 -10
-9 -28 -15 -40 -7 -12 -11 -25 -10 -29 1 -4 -5 -23 -13 -42 -9 -20 -12 -36 -8
-36 4 0 2 -5 -5 -12 -7 -7 -12 -22 -12 -33 0 -12 -3 -25 -7 -29 -4 -3 -8 -14
-9 -24 -2 -22 -8 -48 -30 -142 -10 -41 -18 -83 -17 -92 0 -10 -3 -18 -7 -18
-4 0 -6 -16 -5 -34 1 -19 -2 -33 -7 -30 -4 3 -8 -5 -9 -18 0 -13 -2 -32 -4
-42 -2 -11 -5 -49 -6 -85 -1 -36 -6 -76 -10 -89 -7 -17 -6 -21 3 -16 7 5 8 3
2 -7 -4 -8 -9 -45 -11 -84 -1 -38 -3 -72 -4 -75 -6 -18 -2 -66 6 -72 7 -5 7
-8 0 -8 -11 0 -12 -178 -1 -205 3 -8 1 -15 -4 -15 -5 0 -7 -7 -4 -15 4 -8 9
-13 13 -11 4 3 7 -4 7 -14 0 -12 -5 -16 -16 -12 -13 5 -13 3 -2 -11 8 -9 11
-21 7 -27 -4 -6 1 -18 11 -26 11 -9 13 -12 5 -8 -10 5 -11 1 -6 -16 5 -16 4
-20 -5 -15 -9 6 -9 3 -1 -14 7 -11 9 -21 5 -21 -3 0 -1 -7 6 -15 10 -12 10
-15 -1 -15 -12 0 -12 -2 -1 -9 17 -11 18 -12 4 -37 -9 -17 -8 -25 3 -40 17
-22 20 -48 5 -39 -13 8 -13 -1 0 -26 8 -13 7 -19 0 -19 -6 0 -8 -5 -5 -10 4
-6 10 -8 14 -6 4 3 6 -15 5 -40 -2 -26 1 -42 7 -39 5 4 9 0 9 -9 0 -8 -3 -16
-7 -19 -5 -2 -3 -2 4 -1 7 2 15 -1 18 -6 4 -6 -1 -10 -11 -10 -12 0 -14 -3 -6
-13 6 -7 9 -25 8 -40 -2 -15 0 -30 5 -33 4 -2 6 -11 3 -19 -4 -8 1 -18 10 -21
9 -3 13 -10 10 -15 -3 -5 -10 -6 -16 -3 -7 4 -8 2 -4 -5 4 -6 11 -9 16 -6 5 3
8 -8 8 -24 -1 -17 4 -36 10 -43 10 -13 12 -18 12 -39 0 -5 6 -7 13 -3 8 5 8 2
-2 -9 -16 -20 -2 -23 19 -5 8 7 6 2 -5 -11 -11 -14 -14 -21 -6 -16 10 6 12 2
6 -14 -4 -12 -2 -21 4 -21 6 0 8 -7 5 -15 -4 -8 -1 -22 6 -30 8 -10 9 -15 2
-15 -8 0 -8 -9 -1 -30 6 -16 16 -28 22 -27 7 1 11 -6 9 -15 -2 -10 3 -16 10
-14 7 1 10 1 6 -1 -12 -7 -9 -53 2 -53 6 0 10 -6 8 -13 -2 -7 0 -12 3 -12 4 0
16 -8 26 -18 11 -9 23 -14 28 -10 4 5 5 2 1 -5 -6 -10 -11 -10 -22 -1 -10 9
-14 9 -14 0 0 -6 7 -14 15 -17 8 -4 13 -10 10 -14 -3 -4 2 -11 11 -14 9 -4 14
-13 10 -21 -3 -8 -1 -15 4 -15 5 0 7 -9 5 -20 -3 -13 5 -29 20 -42 13 -12 22
-25 19 -30 -3 -4 0 -8 6 -8 7 0 9 -7 6 -16 -4 -11 -2 -15 8 -11 16 7 32 -26
21 -43 -4 -6 -3 -10 2 -9 20 3 29 -2 29 -20 0 -11 -4 -17 -8 -15 -4 3 -5 -2
-2 -10 3 -9 10 -13 15 -10 8 5 13 -9 10 -28 0 -5 3 -8 8 -8 5 0 9 -22 8 -50 0
-32 -4 -47 -11 -43 -6 4 -5 0 2 -9 7 -9 12 -20 11 -24 -4 -23 2 -33 18 -27 10
4 14 2 9 -5 -4 -7 2 -9 20 -6 18 3 23 1 18 -7 -4 -8 -3 -9 4 -5 6 4 9 13 6 21
-4 8 -11 12 -17 8 -6 -3 -7 -1 -3 5 4 7 2 12 -4 12 -7 0 -9 -7 -6 -16 3 -9 2
-12 -5 -9 -6 4 -8 13 -5 21 3 8 1 14 -3 14 -5 0 -11 -6 -14 -12 -2 -7 -7 -11
-10 -8 -3 3 -2 12 3 20 7 12 13 12 37 0 15 -7 35 -12 43 -11 12 1 12 0 2 -7
-10 -7 -10 -11 1 -21 12 -9 15 -8 13 6 -1 14 8 19 37 21 33 3 39 -1 36 -24 0
-7 33 -33 44 -34 5 0 5 5 1 12 -4 7 -3 8 5 4 8 -5 9 -12 2 -20 -7 -8 -4 -16
10 -25 12 -7 18 -19 15 -27 -5 -14 65 -94 83 -94 6 0 8 -7 5 -15 -4 -8 -1 -15
5 -15 6 0 11 6 11 14 0 8 4 17 8 20 4 2 8 -4 8 -15 0 -10 -4 -19 -8 -19 -4 0
-8 -4 -8 -10 0 -5 7 -10 15 -10 8 0 12 -6 9 -14 -3 -8 -1 -17 5 -21 6 -3 11
-1 11 5 0 6 5 8 10 5 6 -4 8 -10 5 -15 -3 -5 0 -12 6 -16 8 -4 9 -3 5 4 -4 7
-2 12 3 12 6 0 11 -5 11 -11 0 -7 8 -18 17 -26 10 -8 12 -11 4 -7 -9 5 -12 3
-7 -4 4 -7 13 -12 21 -12 8 0 17 -5 21 -12 5 -8 1 -9 -12 -5 -18 7 -18 6 -2
-7 10 -7 18 -18 18 -24 0 -5 7 -12 14 -15 10 -4 13 -1 10 7 -3 7 1 13 9 13 9
0 12 -9 10 -26 -4 -21 -2 -23 6 -11 9 13 11 13 11 -2 0 -10 5 -18 10 -18 6 0
10 -7 10 -16 0 -8 4 -12 10 -9 5 3 10 0 10 -7 0 -9 3 -9 10 2 7 11 10 7 10
-18 0 -20 4 -31 10 -27 5 3 10 1 10 -5 0 -7 9 -9 23 -5 16 5 18 4 8 -3 -12 -8
-9 -15 12 -35 15 -13 23 -28 19 -32 -4 -5 -1 -5 6 -1 11 6 8 13 -9 32 -12 13
-18 24 -13 24 10 0 50 -57 47 -68 -1 -4 10 -9 23 -10 23 -2 66 -31 47 -32 -4
-1 4 -8 20 -16 15 -8 27 -21 27 -29 0 -18 37 -38 53 -29 7 5 7 1 -2 -9 -13
-16 -12 -17 14 -7 26 10 27 9 14 -7 -8 -9 -9 -14 -2 -10 6 4 18 0 26 -8 9 -8
23 -15 31 -15 10 0 16 -9 16 -25 0 -16 5 -23 13 -19 7 2 21 -3 32 -12 11 -8
14 -12 6 -8 -9 5 -12 3 -7 -5 4 -6 13 -11 19 -10 30 4 49 -2 44 -13 -2 -7 11
-23 29 -35 32 -21 44 -10 15 13 -11 9 -12 12 -1 19 8 5 11 4 7 -2 -4 -6 0 -14
8 -17 8 -3 15 -9 14 -13 -5 -30 10 -38 38 -20 7 5 10 0 6 -15 -4 -19 -3 -20 6
-8 9 12 11 10 11 -10 0 -18 3 -21 9 -11 6 9 11 10 15 2 4 -6 12 -9 17 -5 5 3
22 -2 37 -12 15 -10 31 -17 35 -16 5 1 5 -2 2 -8 -5 -8 -13 -6 -24 4 -15 14
-18 14 -18 1 0 -8 4 -12 8 -10 3 3 12 -1 18 -9 7 -8 21 -12 33 -8 13 3 19 1
15 -5 -5 -8 61 -54 78 -54 13 1 34 -12 31 -18 -3 -4 4 -7 14 -7 14 0 16 3 8
13 -8 10 -7 12 5 7 9 -3 19 -14 22 -25 4 -10 11 -19 17 -19 7 0 6 5 -1 14 -10
12 -9 13 7 9 13 -3 18 -11 15 -23 -4 -15 1 -18 25 -16 19 1 28 -2 25 -10 -2
-6 5 -14 16 -17 12 -3 19 -1 16 3 -3 5 -1 12 5 15 6 4 10 3 9 -2 -1 -4 -1 -15
0 -23 1 -13 2 -13 11 0 8 12 10 12 10 1 0 -8 7 -11 20 -8 12 3 25 -2 33 -12
16 -24 75 -54 88 -45 6 3 20 -2 31 -13 14 -12 18 -13 13 -3 -8 13 -7 13 8 1 9
-7 17 -10 17 -6 0 4 11 0 25 -9 35 -23 66 -26 95 -8 24 15 25 15 8 -4 -17 -19
-16 -20 20 -22 20 -2 41 -7 46 -12 5 -5 -1 -7 -15 -4 -21 4 -22 3 -4 -5 14 -6
23 -5 32 6 7 9 13 11 18 4 3 -6 1 -11 -4 -11 -6 0 -11 -5 -11 -11 0 -6 13 -8
30 -5 16 2 33 -1 36 -6 5 -7 2 -8 -6 -3 -8 5 -11 4 -7 -2 4 -6 16 -13 27 -16
18 -5 19 -3 8 11 -11 15 -10 14 8 -1 11 -9 24 -14 27 -10 4 3 7 2 7 -3 0 -5
30 -10 67 -11 44 0 69 -5 74 -15 4 -8 24 -13 52 -13 25 1 43 -3 41 -7 -3 -4 2
-8 11 -8 10 0 13 5 9 13 -4 7 -3 9 2 4 5 -5 10 -13 10 -18 3 -22 6 -23 14 -4
8 19 9 19 9 1 1 -15 4 -16 16 -6 13 11 14 10 10 -2 -4 -9 0 -15 9 -15 8 0 12
7 9 16 -3 11 0 10 12 -4 9 -11 18 -19 20 -17 3 1 6 2 8 1 1 0 12 -2 25 -3 17
-2 21 1 17 13 -3 11 0 10 10 -3 8 -11 15 -14 15 -7 0 9 5 8 16 -3 19 -20 25
-20 18 -1 -4 8 -1 15 6 15 6 0 9 -4 6 -8 -2 -4 -1 -14 5 -22 5 -10 9 -11 9 -3
0 7 7 10 17 6 12 -5 14 -3 9 8 -4 8 -1 6 7 -4 14 -17 48 -23 61 -10 10 11 37
12 30 2 -3 -5 -10 -7 -15 -4 -5 4 -9 1 -9 -5 0 -7 6 -10 14 -7 7 3 19 0 26 -6
10 -9 11 -9 6 0 -5 8 -1 13 9 13 10 0 13 -5 9 -13 -5 -8 -3 -8 9 2 9 7 14 18
10 24 -3 6 -1 7 5 3 6 -4 9 -12 6 -19 -5 -14 61 -20 176 -16 44 1 75 -5 82
-15 5 -7 13 -3 23 9 8 11 14 14 13 6 -2 -7 5 -15 15 -16 9 -2 17 1 17 7 0 7 5
6 14 -1 11 -9 17 -8 29 3 13 14 17 14 27 1 9 -11 17 -12 30 -5 11 6 21 6 24 1
6 -9 57 -7 130 5 27 5 41 3 47 -7 7 -11 9 -10 9 5 0 15 3 16 15 6 10 -8 15 -9
15 -2 0 7 19 9 55 6 37 -4 61 -2 70 6 8 7 15 8 15 3 0 -5 7 -10 15 -10 8 0 15
4 15 9 0 5 8 5 17 -1 10 -5 26 -5 41 0 17 6 29 6 38 -2 11 -9 13 -9 9 2 -3 9
2 14 17 15 56 4 86 10 81 17 -2 4 0 7 6 7 5 0 11 -6 14 -12 3 -9 10 -7 21 7
l15 20 1 -20 c0 -12 3 -16 8 -9 6 10 21 14 65 15 9 0 17 5 17 10 0 6 4 8 9 5
5 -4 12 0 14 6 4 10 6 9 6 -1 1 -11 4 -11 18 0 15 12 16 12 8 -1 -6 -11 -4
-11 11 2 13 12 24 14 36 7 11 -6 21 -4 32 7 9 8 16 11 16 6 0 -6 9 -8 20 -5
11 3 20 9 20 13 0 4 12 8 28 8 46 2 87 18 84 33 -3 11 -1 11 9 2 8 -8 19 -9
36 -2 14 5 29 7 34 3 5 -3 9 0 9 6 0 7 7 10 15 6 10 -3 15 1 16 12 0 14 2 14
9 -3 5 -11 9 -14 9 -7 1 6 10 12 22 12 11 0 18 4 15 9 -3 5 3 11 14 14 13 3
18 1 13 -6 -5 -9 -3 -9 8 -1 14 11 66 27 72 22 2 -2 14 4 28 14 14 9 41 19 59
22 18 2 36 10 40 16 6 9 9 9 13 -1 4 -11 6 -11 6 -1 1 7 5 11 10 7 5 -3 15 0
23 7 12 12 28 17 66 20 6 1 12 5 12 10 0 5 4 7 9 4 9 -6 84 22 134 50 15 8 27
12 27 7 0 -4 4 -3 8 4 4 6 16 13 27 15 11 1 22 5 25 8 7 8 160 80 169 80 5 0
14 7 21 15 7 8 16 13 20 10 5 -3 11 -1 14 4 4 5 32 22 64 38 31 15 59 31 62
34 3 3 25 15 50 28 54 26 75 39 117 68 17 13 36 23 42 23 6 0 11 5 11 10 0 6
7 10 15 10 8 0 15 5 15 10 0 6 7 10 15 10 8 0 15 5 15 10 0 6 7 10 15 10 8 0
15 5 15 11 0 5 4 8 9 4 5 -3 13 -1 16 5 4 6 24 21 44 35 21 13 44 30 52 37 8
8 44 34 80 59 36 25 72 51 80 57 8 7 30 25 49 41 231 191 456 409 605 586 28
33 58 67 68 77 9 10 17 20 17 23 0 7 110 138 124 147 6 4 8 8 4 8 -6 0 45 72
130 185 4 6 23 35 42 65 19 30 38 57 42 58 5 2 8 7 8 12 0 5 22 44 48 87 27
43 68 116 93 163 24 47 47 87 50 90 3 3 11 21 19 40 7 19 22 50 32 67 11 18
17 37 14 41 -3 5 3 17 14 27 11 10 17 22 14 26 -3 5 2 17 11 26 13 13 14 18 3
24 -10 7 -8 9 6 9 11 0 17 3 13 6 -3 4 0 21 8 39 7 19 11 36 8 39 -3 3 0 12 7
21 7 8 9 15 4 15 -4 0 0 6 9 12 12 9 16 23 13 45 -2 21 2 34 11 37 8 3 12 9
10 13 -3 5 0 19 6 33 10 25 13 35 15 58 1 7 6 11 11 8 4 -3 7 6 5 19 -1 14 3
25 9 25 7 0 5 5 -3 10 -10 6 -11 10 -3 10 7 0 12 3 11 8 -1 4 5 30 14 57 9 28
18 66 20 85 1 19 9 46 17 60 15 23 15 24 -2 11 -21 -17 -22 -3 -2 26 10 14 11
24 5 28 -6 4 -5 14 4 28 28 43 43 157 32 239 -2 15 1 25 5 22 5 -3 7 11 5 30
-3 20 -1 38 4 41 6 4 10 11 10 16 0 6 -5 7 -12 3 -7 -4 -8 -3 -4 5 21 33 23
100 4 112 -10 7 -10 9 -1 9 7 0 12 11 11 25 -1 14 -6 25 -10 25 -4 0 -8 5 -8
11 0 5 5 7 12 3 7 -4 8 -3 4 4 -4 7 -4 18 1 25 13 20 12 36 -3 48 -8 6 -14 17
-14 24 0 8 -3 15 -7 18 -5 2 -2 2 5 1 14 -4 14 -6 3 34 -8 26 -7 32 5 32 8 0
12 5 9 10 -4 6 -10 8 -15 5 -4 -3 -16 8 -26 23 -17 26 -17 27 1 12 17 -14 18
-13 13 2 -4 9 -4 19 0 22 3 4 7 13 8 22 2 11 -1 12 -10 5 -9 -8 -12 -5 -11 10
1 11 6 24 11 27 14 10 11 31 -6 42 -9 6 -10 10 -3 10 7 0 10 7 7 15 -4 8 0 23
7 32 10 12 10 15 2 9 -8 -4 -13 -2 -13 8 0 8 -6 17 -12 19 -10 4 -10 6 0 6 18
1 15 28 -4 35 -15 6 -15 4 -3 -11 13 -16 12 -17 -4 -4 -13 10 -15 17 -6 27 6
8 16 11 22 7 6 -3 7 -1 3 6 -4 6 -11 9 -15 6 -5 -2 -7 14 -5 36 l3 41 -22 -19
c-16 -13 -18 -14 -9 -2 16 21 24 62 11 54 -5 -4 -7 -10 -4 -15 3 -5 2 -11 -3
-14 -4 -2 -8 6 -8 20 0 13 5 24 11 24 5 0 2 5 -8 11 -9 5 -22 7 -29 3 -7 -4
-8 -3 -4 5 4 7 16 9 27 6 18 -6 19 -5 8 13 -7 12 -17 18 -23 15 -5 -3 -6 -1
-2 5 4 7 14 12 23 12 12 0 13 3 4 14 -6 7 -12 25 -13 39 -2 27 -22 42 -40 30
-6 -3 -8 -1 -4 5 3 5 3 12 -1 15 -5 2 -3 2 4 1 13 -3 25 21 16 30 -4 3 -11 6
-17 6 -6 0 -4 -5 4 -10 9 -6 10 -10 3 -10 -16 0 -26 17 -13 25 6 4 7 11 4 17
-5 7 -12 4 -21 -8 -13 -18 -14 -17 -9 10 3 16 8 31 12 35 4 3 4 -3 0 -14 -5
-14 -4 -17 4 -9 13 13 2 46 -14 38 -6 -3 -2 2 8 10 19 16 19 16 -2 16 -12 0
-22 5 -22 11 0 5 5 7 11 3 8 -5 8 -1 0 14 -6 12 -16 24 -21 27 -6 4 -8 11 -5
16 4 5 1 9 -5 9 -6 0 -8 5 -3 13 11 17 13 38 3 32 -4 -3 -11 2 -14 11 -3 8
-11 12 -17 8 -7 -4 -7 1 1 16 11 21 10 22 -6 16 -10 -4 -15 -4 -11 0 4 4 1 14
-6 23 -10 14 -10 14 4 4 13 -10 16 -10 16 2 0 8 -9 15 -20 15 -14 0 -18 5 -14
20 3 13 0 20 -9 20 -8 0 -14 7 -14 16 0 8 -4 13 -8 10 -5 -3 -9 1 -9 8 0 8 8
12 21 9 16 -4 18 -2 7 5 -11 8 -11 11 0 16 8 3 4 3 -8 0 -23 -5 -28 5 -24 46
2 12 0 12 -7 2 -12 -17 -37 41 -26 59 5 9 2 10 -11 5 -16 -6 -16 -4 -4 11 12
14 12 16 0 8 -11 -6 -13 -4 -8 9 5 13 3 17 -6 13 -7 -3 -19 4 -26 15 -7 11 -8
17 -2 13 6 -3 11 1 11 10 0 11 -5 15 -15 11 -18 -7 -20 5 -2 23 6 7 8 12 2 11
-32 -7 -47 1 -42 21 4 16 2 19 -10 15 -13 -5 -14 -4 -3 9 10 12 10 15 0 15 -8
0 -10 8 -7 21 4 15 2 19 -9 15 -12 -4 -14 -1 -9 14 5 15 3 18 -10 14 -9 -4
-15 -2 -13 4 4 16 -35 72 -50 72 -7 0 -10 5 -7 10 4 6 12 7 18 4 7 -4 4 2 -6
12 -9 10 -27 19 -40 19 -18 0 -21 5 -18 25 l3 25 -23 -20 c-13 -11 -19 -13
-13 -5 9 12 11 40 5 69 -1 2 -7 -2 -15 -8 -10 -9 -15 -8 -19 3 -4 9 -1 18 5
22 7 5 8 2 3 -6 -5 -9 -4 -11 3 -6 19 11 14 22 -14 34 -16 8 -22 17 -18 25 4
6 4 9 0 6 -9 -8 -60 40 -70 66 -6 16 -5 18 5 8 7 -7 18 -13 23 -13 6 0 0 7
-12 16 -12 8 -19 21 -16 27 5 9 4 9 -6 0 -14 -13 -40 -7 -40 9 0 7 5 6 13 -1
10 -8 14 -7 14 4 0 8 -4 12 -8 9 -4 -2 -12 4 -18 13 -9 16 -11 15 -12 -7 l-1
-25 -7 25 c-5 14 -14 24 -22 22 -11 -3 -12 -1 -1 9 10 11 8 17 -11 34 -13 11
-26 27 -29 35 -2 8 -13 15 -24 15 -10 0 -19 7 -19 15 0 8 -9 20 -20 27 -11 6
-19 14 -17 17 1 3 2 12 2 19 0 8 -4 7 -10 -3 -6 -10 -10 -11 -10 -2 0 6 -7 12
-15 12 -14 0 -20 12 -16 33 1 5 -3 6 -8 3 -5 -4 -15 2 -21 11 -11 17 -11 17
-6 0 3 -11 2 -15 -4 -12 -6 3 -10 15 -10 27 0 17 -3 18 -15 8 -8 -7 -12 -17
-8 -23 4 -6 1 -7 -6 -3 -7 5 -10 11 -7 14 4 3 -3 15 -14 27 -12 12 -20 29 -18
36 2 9 -6 14 -24 13 -20 0 -25 3 -17 12 6 8 5 14 -6 18 -9 3 -13 2 -10 -3 3
-5 0 -13 -6 -17 -7 -4 -10 -3 -7 2 10 16 -10 54 -26 48 -8 -3 -17 0 -21 5 -3
6 -12 8 -18 4 -7 -3 -3 4 8 18 17 20 17 21 2 9 -16 -12 -20 -12 -27 0 -5 8 -6
18 -4 22 3 4 0 8 -5 8 -6 0 -11 -4 -11 -10 0 -5 -5 -10 -11 -10 -5 0 -8 4 -5
9 3 5 -5 12 -19 15 -14 4 -25 11 -25 17 0 6 5 7 10 4 6 -3 10 -1 10 4 0 6 -6
11 -13 11 -8 0 -22 9 -32 20 -22 25 -47 27 -38 3 5 -14 3 -13 -13 3 -11 10
-16 21 -12 22 4 2 8 12 8 21 0 14 -6 17 -27 14 -22 -4 -25 -2 -13 6 13 9 13
11 -1 11 -8 0 -22 -6 -29 -12 -13 -11 -13 -11 -2 2 14 17 16 34 2 25 -5 -3
-10 -1 -10 6 0 8 -4 8 -15 -1 -13 -10 -19 -10 -35 5 -11 10 -20 24 -20 31 0
19 -19 27 -35 14 -10 -8 -15 -8 -21 1 -5 8 -3 10 7 4 8 -5 11 -4 6 1 -5 5 -16
9 -25 9 -9 0 -18 9 -20 20 -5 26 -23 37 -39 23 -12 -10 -18 0 -14 25 1 5 -3 6
-9 2 -6 -3 -8 -11 -5 -16 4 -5 1 -9 -4 -9 -6 0 -11 5 -11 11 0 5 -4 7 -10 4
-6 -4 -7 1 -3 11 5 13 3 15 -8 8 -20 -12 -40 -14 -33 -3 3 5 10 6 16 3 7 -4 8
-2 4 5 -4 6 -11 9 -16 6 -5 -3 -16 2 -24 11 -9 8 -16 12 -16 8 0 -3 -6 -2 -12
3 -7 5 -25 8 -40 7 -20 -2 -27 3 -32 19 -5 21 -5 21 9 3 8 -11 15 -16 15 -11
0 16 -32 44 -45 39 -7 -3 -16 -1 -20 5 -3 6 -12 11 -18 11 -7 0 -6 -4 3 -11
13 -9 13 -10 -2 -6 -9 3 -19 1 -22 -6 -3 -7 -3 -2 -1 9 5 17 0 23 -22 29 -15
5 -34 7 -42 6 -7 -1 -11 2 -8 6 3 5 -3 10 -14 10 -17 2 -19 -1 -8 -15 6 -9 -5
0 -25 20 -32 33 -39 36 -62 27 -22 -8 -25 -7 -16 4 9 10 4 16 -23 26 -19 7
-40 9 -46 5 -8 -4 -9 -3 -5 4 4 7 1 12 -8 12 -8 0 -17 -6 -19 -12 -4 -10 -6
-10 -6 0 -1 7 -5 10 -11 7 -5 -3 -10 -1 -10 5 0 6 -4 9 -9 5 -6 -3 -15 3 -21
12 -8 13 -10 14 -7 2 5 -17 -26 -20 -40 -4 -5 4 -2 5 5 1 7 -4 12 -1 12 7 0
17 -33 13 -60 -7 -8 -6 -6 -1 4 12 l19 22 -31 0 c-17 0 -32 6 -35 13 -3 9 -8
9 -18 -2 -12 -12 -12 -13 0 -6 10 5 12 4 7 -4 -4 -6 -12 -9 -17 -5 -5 3 -7 10
-4 15 4 5 -2 9 -12 9 -10 0 -26 7 -36 15 -11 7 -26 11 -35 8 -8 -4 -13 -2 -9
3 3 6 -10 10 -31 9 -44 -1 -75 12 -66 27 4 7 3 8 -5 4 -6 -4 -9 -11 -7 -15 3
-4 -1 -8 -9 -8 -8 0 -13 3 -10 5 3 3 -5 12 -16 20 -18 12 -23 13 -30 1 -5 -8
-9 -9 -9 -3 0 7 -7 15 -16 18 -15 6 -15 4 -3 -11 12 -16 12 -17 -2 -6 -9 7
-19 10 -23 6 -4 -4 -4 1 0 11 6 15 4 17 -7 10 -20 -12 -39 -14 -39 -3 0 5 -9
9 -21 9 -11 0 -18 4 -15 8 3 5 -12 7 -32 6 -20 -1 -44 2 -53 7 -10 5 -21 3
-27 -3 -9 -9 -12 -7 -12 8 0 15 -2 16 -9 5 -8 -12 -12 -12 -24 -2 -11 8 -17 9
-22 1 -5 -8 -11 -8 -19 -1 -7 6 -15 8 -19 5 -3 -3 -14 -1 -23 4 -14 8 -21 6
-31 -6 -12 -15 -12 -15 -6 2 4 13 3 17 -4 13 -6 -4 -14 -1 -16 5 -4 10 -8 9
-16 -2 -7 -10 -11 -11 -11 -2 0 14 -21 12 -32 -3 -5 -6 -8 -6 -8 1 0 7 -24 12
-66 12 -45 0 -70 5 -75 14 -7 10 -9 8 -9 -7 -1 -18 -1 -19 -11 -2 -5 9 -15 17
-20 17 -6 0 -7 -5 -4 -10 8 -13 -18 -8 -27 5 -5 6 -8 6 -8 -2 0 -12 -18 -12
-39 1 -7 5 -16 5 -20 0 -8 -11 -43 -15 -36 -4 3 4 -23 7 -58 5 -34 -1 -68 2
-74 8 -7 5 -13 6 -13 1z m735 -74 c3 -5 1 -10 -4 -10 -6 0 -11 5 -11 10 0 6 2
10 4 10 3 0 8 -4 11 -10z m-1072 -232 c34 0 67 1 72 2 22 5 157 0 166 -5 5 -4
9 -2 9 4 0 7 8 7 23 2 12 -4 39 -6 60 -3 27 3 37 0 37 -9 0 -11 2 -11 9 0 8
12 12 12 24 2 10 -7 18 -8 21 -2 7 11 45 9 64 -3 7 -4 12 -2 12 4 0 6 5 8 13
3 17 -10 36 -14 79 -16 21 -1 38 -6 38 -10 0 -4 10 -3 21 4 17 9 23 8 30 -2 7
-11 9 -11 9 1 0 13 1 13 10 0 7 -11 10 -11 10 -2 0 7 5 10 10 7 6 -4 8 -10 6
-14 -3 -4 1 -8 9 -8 8 0 15 5 15 11 0 6 5 4 10 -4 5 -8 10 -11 10 -6 0 5 6 3
14 -3 10 -9 16 -9 21 -1 5 8 10 8 20 0 8 -6 27 -12 44 -12 19 -1 28 -5 24 -12
-4 -6 1 -5 10 3 10 7 17 9 17 3 0 -6 8 -9 18 -7 9 1 25 -2 36 -7 24 -13 67
-18 60 -7 -2 4 7 2 22 -5 17 -10 35 -11 55 -6 19 6 27 5 23 -1 -3 -6 0 -10 7
-9 25 4 59 -12 52 -24 -4 -6 1 -5 10 3 11 9 17 10 17 2 0 -16 21 -13 42 6 13
11 18 13 16 4 -2 -7 7 -20 20 -28 21 -15 22 -14 16 3 -3 11 4 6 16 -11 12 -16
20 -22 16 -12 -7 21 7 22 29 1 8 -9 22 -13 30 -10 8 3 21 -2 30 -10 11 -12 15
-12 16 -2 0 10 2 10 6 0 4 -10 8 -10 21 0 10 7 14 9 10 4 -4 -5 -1 -15 7 -22
16 -16 29 -19 20 -4 -11 18 3 11 31 -15 21 -19 29 -22 36 -13 7 11 12 5 10
-13 -1 -3 5 -6 13 -6 8 0 12 3 10 7 -2 4 3 7 11 7 8 0 13 -6 10 -14 -4 -10 -1
-11 14 -3 16 8 18 8 14 -4 -3 -8 0 -17 7 -22 8 -4 10 -3 5 4 -5 8 -2 10 8 6 9
-3 13 -10 10 -15 -3 -5 -1 -9 4 -9 17 0 22 13 9 29 -11 14 -10 14 5 2 10 -7
16 -17 13 -21 -3 -4 2 -10 10 -14 8 -3 15 0 15 7 1 7 7 1 15 -13 8 -14 14 -20
15 -14 0 6 6 11 14 11 8 0 12 -6 9 -13 -5 -14 61 -39 77 -29 6 4 7 -1 3 -12
-3 -10 -3 -15 2 -11 4 4 14 0 22 -10 8 -9 12 -12 9 -6 -3 7 1 14 9 18 8 3 14
2 14 -2 -4 -22 3 -30 21 -25 11 3 32 -3 47 -13 16 -10 34 -17 41 -16 7 2 12
-1 11 -5 -1 -4 -1 -15 0 -23 1 -13 2 -13 11 0 8 13 10 13 10 -2 0 -13 7 -16
33 -13 17 3 28 1 22 -3 -17 -12 -17 -35 -1 -29 9 4 18 2 21 -4 4 -5 10 -7 15
-4 5 3 15 -4 23 -16 l15 -21 5 23 c4 21 4 20 6 -5 1 -29 2 -29 16 -10 13 16
14 16 9 2 -6 -17 5 -23 30 -19 5 1 4 -5 -3 -13 -10 -12 -9 -14 7 -9 14 3 22
-1 27 -16 3 -11 22 -30 42 -42 31 -19 38 -20 57 -9 18 12 19 11 9 -2 -16 -19
-5 -32 14 -16 8 6 13 7 12 2 -1 -5 -1 -16 0 -24 1 -13 2 -13 11 0 6 10 10 11
10 3 0 -7 6 -13 14 -13 20 0 29 -17 15 -26 -8 -5 -9 -3 -4 6 5 9 4 11 -4 6 -6
-4 -9 -11 -6 -16 6 -10 24 -8 44 4 10 7 12 5 6 -3 -4 -8 1 -21 14 -32 12 -11
21 -17 21 -13 0 3 7 1 15 -6 8 -6 20 -8 27 -4 7 4 10 4 6 0 -8 -9 34 -55 45
-49 4 2 7 -3 7 -11 0 -9 8 -16 19 -16 11 0 23 -5 27 -12 5 -7 2 -8 -7 -3 -8 4
6 -12 31 -37 32 -31 49 -42 58 -35 8 7 12 4 12 -11 0 -12 5 -24 12 -28 6 -4 8
-3 5 3 -3 5 -1 10 6 10 7 0 13 -11 13 -24 1 -13 12 -33 24 -43 26 -23 36 -26
24 -7 -5 7 -2 5 8 -5 10 -11 24 -16 35 -12 15 5 15 4 3 -5 -14 -10 -7 -16 13
-12 5 1 6 -3 2 -9 -3 -5 0 -10 7 -10 9 0 9 -3 -2 -10 -13 -8 -12 -10 3 -10 10
0 25 -7 33 -15 11 -11 12 -15 3 -15 -7 0 -9 -3 -6 -6 4 -4 14 -1 23 7 15 12
16 12 10 -8 -4 -13 -2 -24 5 -29 8 -5 10 -2 5 7 -4 8 -1 6 7 -3 8 -10 18 -14
22 -10 5 4 5 1 1 -6 -4 -7 -13 -10 -19 -6 -7 3 -4 -1 6 -9 9 -8 17 -17 17 -20
0 -15 36 -47 53 -47 10 0 15 -4 12 -10 -6 -9 8 -14 28 -11 4 0 7 -9 7 -21 1
-26 22 -58 39 -58 6 0 11 -5 11 -11 0 -5 6 -7 13 -3 9 5 9 4 0 -6 -10 -11 -6
-19 19 -42 17 -15 28 -28 24 -28 -5 0 -1 -11 8 -25 9 -14 13 -25 10 -25 -4 0
1 -9 10 -19 11 -12 25 -17 34 -13 15 5 16 4 2 -13 -8 -10 -10 -16 -4 -12 7 4
14 -3 18 -18 4 -15 14 -25 24 -25 10 0 13 -3 6 -8 -7 -4 -1 -16 17 -33 15 -15
31 -24 36 -21 4 4 2 0 -4 -8 -17 -19 -16 -30 3 -30 8 0 12 -4 9 -10 -3 -5 -1
-10 6 -10 7 0 9 -3 6 -6 -4 -4 3 -15 14 -25 12 -10 18 -23 14 -29 -4 -6 1 -18
11 -26 11 -9 14 -13 8 -10 -6 3 -11 -1 -11 -9 0 -8 2 -13 5 -10 9 8 33 -25 30
-42 -2 -10 2 -17 10 -16 6 2 12 -4 12 -12 0 -8 5 -15 11 -15 6 0 8 -9 4 -20
-4 -13 -1 -22 9 -26 9 -3 14 -10 11 -14 -5 -8 24 -25 38 -21 5 1 5 -4 2 -10
-5 -8 -10 -8 -18 0 -6 6 -15 11 -20 11 -5 0 -2 -7 7 -15 8 -8 13 -24 11 -35
-2 -11 0 -18 5 -15 4 3 15 2 24 -1 15 -6 15 -8 -1 -20 -15 -11 -15 -13 -3 -14
9 0 16 -9 17 -20 1 -13 -2 -18 -9 -14 -7 4 -8 2 -4 -4 4 -6 13 -9 21 -5 18 6
20 -8 3 -25 -9 -9 -8 -12 6 -12 12 0 16 -5 12 -15 -3 -8 0 -15 7 -15 7 0 8 -3
2 -8 -15 -10 -18 -35 -4 -26 9 5 10 1 7 -14 -4 -13 0 -23 9 -26 8 -4 13 -13 9
-21 -3 -8 0 -15 6 -15 6 0 8 -3 5 -6 -3 -4 -2 -15 4 -25 7 -14 6 -19 -3 -19
-6 0 -3 -7 8 -15 16 -13 17 -16 4 -25 -9 -6 -10 -10 -3 -10 6 0 12 -8 12 -17
-1 -36 8 -74 19 -85 7 -7 12 -20 12 -29 0 -10 4 -20 9 -24 6 -3 8 -14 6 -25
-2 -11 4 -25 13 -31 15 -9 15 -10 1 -6 -13 4 -16 1 -11 -16 2 -12 9 -28 15
-34 6 -9 5 -19 -4 -30 -8 -9 -9 -14 -3 -10 7 4 14 0 18 -8 3 -8 1 -17 -4 -20
-11 -7 -6 -48 10 -89 5 -15 7 -26 4 -26 -3 0 -2 -6 3 -12 4 -7 6 -23 4 -35 -1
-14 3 -23 11 -23 8 0 9 -3 3 -8 -13 -9 -16 -72 -4 -72 5 0 9 -5 9 -11 0 -5 -6
-7 -12 -3 -10 6 -10 4 0 -8 10 -12 10 -17 1 -20 -8 -3 -9 -9 -3 -19 5 -8 9
-21 9 -29 0 -8 4 -21 9 -29 6 -9 5 -12 -1 -8 -6 4 -14 0 -17 -9 -4 -10 -2 -13
7 -8 8 5 7 2 -2 -9 -9 -12 -10 -21 -3 -29 11 -14 12 -68 1 -68 -3 0 -7 -48 -8
-107 -2 -118 -6 -156 -16 -172 -3 -6 0 -11 7 -11 8 0 9 -3 3 -8 -12 -8 -14
-18 -18 -75 -2 -24 -7 -48 -10 -54 -4 -6 -5 -31 -3 -56 1 -26 0 -44 -4 -42 -4
2 -7 -10 -7 -26 0 -17 -4 -34 -9 -37 -11 -8 -16 -27 -18 -64 0 -16 -4 -28 -8
-28 -5 0 -7 -3 -6 -7 2 -12 -14 -86 -22 -103 -5 -8 -10 -28 -13 -45 -8 -45
-88 -247 -173 -433 -13 -28 -23 -53 -21 -55 1 -1 -7 -15 -18 -32 -12 -16 -34
-55 -49 -85 -26 -49 -181 -293 -206 -323 -15 -18 -62 -80 -85 -112 -11 -15
-29 -38 -40 -50 -11 -13 -47 -54 -80 -92 -77 -87 -213 -222 -219 -216 -2 2 -7
-5 -11 -16 -3 -12 -10 -19 -15 -16 -5 3 -12 -1 -17 -8 -4 -8 -33 -35 -63 -62
-30 -26 -68 -59 -85 -74 -53 -46 -115 -91 -125 -91 -6 0 -10 -7 -10 -16 0 -8
-4 -13 -9 -10 -4 3 -19 -6 -31 -19 -13 -14 -30 -25 -37 -25 -8 0 -16 -7 -19
-15 -4 -8 -12 -15 -20 -15 -8 0 -14 -4 -14 -10 0 -5 -9 -10 -19 -10 -11 0 -21
-4 -23 -8 -5 -13 -120 -92 -135 -92 -7 0 -13 -4 -13 -10 0 -5 -7 -10 -15 -10
-8 0 -15 -4 -15 -10 0 -5 -4 -10 -10 -10 -5 0 -49 -23 -97 -51 -48 -28 -92
-51 -98 -52 -5 -1 -12 -4 -15 -7 -14 -14 -285 -140 -335 -156 -57 -18 -85 -30
-85 -36 0 -5 -6 -8 -12 -8 -7 0 -26 -7 -42 -15 -16 -9 -31 -13 -34 -11 -2 3
-14 -1 -26 -9 -11 -8 -28 -15 -38 -15 -10 0 -18 -4 -18 -8 0 -5 -6 -9 -12 -10
-15 -1 -52 -10 -55 -12 -2 -2 -7 -4 -13 -5 -5 -1 -13 -4 -17 -5 -5 -2 -12 -4
-18 -5 -5 -2 -12 -4 -15 -5 -3 -1 -18 -4 -35 -6 -16 -3 -32 -8 -35 -12 -3 -4
-21 -9 -40 -10 -19 -2 -43 -8 -52 -13 -10 -5 -37 -12 -60 -15 -24 -3 -54 -8
-68 -10 -14 -3 -31 -6 -37 -6 -7 -1 -13 -5 -13 -9 0 -5 -7 -6 -15 -3 -8 4 -23
3 -32 -1 -10 -4 -29 -9 -43 -11 -14 -2 -34 -6 -45 -8 -11 -3 -41 -8 -67 -12
-27 -3 -48 -11 -48 -17 0 -5 -6 -5 -14 2 -11 9 -15 8 -20 -4 -4 -10 -11 -13
-18 -8 -19 11 -48 14 -48 4 0 -4 -12 -7 -27 -6 -16 1 -32 -1 -38 -3 -5 -3 -30
-7 -55 -8 -65 -4 -110 -11 -117 -17 -3 -4 -14 -2 -24 3 -10 6 -20 6 -23 1 -3
-5 -21 -9 -40 -9 -19 0 -40 -3 -47 -8 -7 -4 -10 -3 -6 3 4 6 -17 9 -53 9 -33
-1 -60 -3 -60 -7 0 -3 -26 -4 -57 -3 -32 1 -64 -3 -71 -9 -9 -7 -11 -6 -6 8 6
14 4 16 -12 8 -10 -6 -25 -8 -33 -5 -10 3 -11 0 -5 -9 6 -11 5 -12 -7 -2 -11
9 -19 9 -26 2 -8 -8 -13 -7 -18 2 -6 8 -4 10 5 4 9 -5 11 -4 6 3 -5 8 -13 9
-25 2 -11 -5 -22 -5 -27 0 -6 6 -20 4 -38 -5 -19 -10 -25 -11 -18 -3 8 10 1
13 -33 13 -24 0 -42 -2 -40 -5 2 -3 -7 -5 -20 -5 -13 0 -23 2 -23 5 1 16 -3
20 -14 14 -16 -10 -48 -13 -48 -4 0 10 -42 6 -59 -4 -9 -6 -12 -5 -8 1 4 6 -4
11 -18 11 -14 0 -22 -4 -19 -9 3 -5 -2 -6 -10 -3 -8 3 -14 11 -12 17 1 7 1 9
-1 4 -3 -4 -10 -4 -15 -1 -7 4 -8 2 -4 -4 4 -7 2 -13 -3 -13 -21 -3 -26 -4
-40 -13 -9 -6 -12 -5 -8 1 4 6 -1 19 -9 29 -15 19 -15 19 -10 -1 l6 -20 -16
20 c-11 14 -18 16 -21 8 -3 -10 -8 -9 -20 2 -21 21 -39 19 -22 -2 13 -17 12
-17 -6 -2 -11 9 -26 14 -32 12 -7 -3 -13 -1 -13 4 0 7 -33 11 -108 13 -16 0
-21 4 -16 13 5 8 2 7 -9 -2 -14 -11 -17 -11 -18 0 0 10 -2 11 -6 2 -6 -17 -23
-16 -23 1 0 18 -28 14 -42 -5 -8 -11 -9 -10 -4 4 9 27 -4 41 -18 21 -10 -13
-15 -14 -21 -4 -6 9 -4 11 5 5 9 -5 11 -4 6 4 -4 6 -12 9 -17 6 -5 -4 -9 0 -9
7 0 9 -3 9 -10 -2 -8 -12 -10 -12 -10 -1 0 11 -3 11 -15 1 -8 -6 -19 -9 -25
-5 -6 4 -19 1 -28 -6 -12 -10 -11 -7 3 9 l19 23 -28 -7 c-22 -5 -27 -4 -21 6
6 9 3 10 -13 1 -25 -14 -43 -14 -22 -1 13 9 13 10 0 11 -8 0 -25 2 -38 5 -14
2 -21 0 -17 -6 3 -5 1 -10 -4 -10 -6 0 -11 7 -11 15 0 8 -6 14 -12 13 -7 -2
-12 2 -11 9 2 7 -6 10 -17 8 -11 -2 -22 1 -25 6 -4 5 -10 7 -15 4 -5 -3 -11
-1 -15 5 -3 5 -13 10 -21 10 -8 0 -13 -4 -9 -9 3 -5 1 -13 -5 -16 -6 -4 -10
-3 -9 2 3 20 -2 34 -11 28 -5 -3 -10 -1 -10 6 0 8 -4 8 -15 -1 -9 -7 -18 -10
-22 -6 -3 3 0 6 8 6 12 0 12 2 -1 10 -10 6 -20 4 -31 -6 -14 -12 -16 -12 -16
1 0 8 4 12 9 9 4 -3 8 2 8 11 0 11 -7 14 -25 11 -14 -3 -25 0 -25 6 0 6 -7 5
-17 -3 -13 -11 -15 -11 -9 -1 6 10 2 13 -15 10 -17 -2 -24 2 -23 14 1 13 -3
15 -22 8 -15 -6 -26 -5 -30 2 -5 7 -2 8 7 3 8 -4 5 1 -6 12 -13 14 -22 16 -27
9 -7 -10 -11 -3 -10 14 1 12 -43 9 -50 -3 -5 -8 -8 -5 -8 8 0 17 -2 17 -10 5
-8 -12 -10 -12 -10 -1 0 10 -3 11 -14 2 -12 -10 -17 -8 -26 11 -11 22 -10 22
4 4 9 -11 16 -14 16 -8 0 7 0 15 0 20 0 4 -8 7 -17 7 -10 0 -24 4 -31 8 -7 5
-21 6 -31 2 -13 -4 -24 2 -36 21 -9 15 -20 23 -24 18 -3 -5 -12 -10 -20 -12
-12 -3 -12 -1 0 14 8 10 9 15 2 11 -6 -4 -14 -3 -18 3 -9 15 -48 13 -39 -2 4
-7 5 -11 1 -8 -3 3 -5 7 -4 10 2 8 -50 57 -68 63 -10 5 -14 3 -9 -5 4 -7 3 -8
-4 -4 -7 4 -12 14 -12 22 0 8 -5 14 -11 14 -6 0 -9 -7 -6 -15 4 -8 2 -17 -4
-20 -5 -4 -9 -3 -8 2 3 19 -2 34 -10 28 -5 -3 -12 -1 -16 5 -4 6 -11 7 -17 4
-7 -4 -8 -2 -4 5 6 9 11 9 21 1 9 -8 15 -8 20 0 3 5 1 10 -6 10 -7 0 -21 8
-31 17 -15 13 -21 14 -31 4 -9 -10 -8 -11 5 -6 10 4 18 3 18 -2 0 -12 -46 -11
-57 1 -4 4 -2 6 6 4 7 -2 16 3 18 10 6 15 -29 16 -44 1 -9 -9 -11 -7 -9 5 1
10 9 22 17 27 12 7 12 9 -2 9 -8 0 -21 -6 -28 -12 -10 -11 -11 -10 -6 3 9 24
-29 53 -60 45 -20 -5 -25 -4 -19 5 5 9 2 10 -10 6 -9 -4 -15 -3 -12 2 3 5 -1
11 -8 14 -9 4 -17 -1 -19 -11 -4 -16 -5 -16 -6 0 0 9 3 19 8 22 17 11 0 44
-20 39 -10 -3 -17 -9 -14 -12 2 -4 -2 -8 -10 -8 -8 0 -12 8 -10 20 3 13 0 17
-11 13 -9 -3 -12 -2 -8 5 12 20 -43 48 -101 50 -11 1 -14 3 -7 6 10 4 9 10 -5
26 -14 17 -14 19 -1 9 11 -9 18 -10 23 -2 6 9 -14 15 -44 11 -7 -2 -10 2 -6 8
9 15 -8 14 -24 -2 -8 -6 -6 0 3 15 17 26 17 26 -7 24 -19 -2 -23 1 -20 18 3
15 -4 26 -26 39 -17 10 -31 15 -31 11 0 -4 -7 1 -16 12 -8 10 -13 13 -9 7 3
-7 1 -13 -4 -13 -6 0 -11 7 -11 15 0 9 -6 12 -15 8 -9 -3 -15 -2 -14 3 5 28
-3 54 -16 54 -8 0 -15 5 -15 12 0 6 -3 8 -6 5 -12 -12 -46 14 -40 30 5 13 4
14 -9 3 -12 -10 -16 -9 -21 4 -3 9 -11 13 -16 10 -7 -4 -7 0 0 12 11 21 6 44
-10 44 -6 0 -5 -8 3 -17 12 -16 12 -17 -2 -6 -9 7 -18 10 -21 8 -3 -3 -3 5 -1
18 3 15 -2 28 -14 38 -17 13 -17 13 -3 -6 14 -19 14 -19 -3 -6 -10 8 -16 20
-13 28 4 9 1 11 -6 7 -8 -5 -9 -2 -5 9 3 9 3 16 -1 16 -19 -3 -32 2 -32 14 -1
16 -35 57 -48 57 -6 0 -12 -5 -14 -12 -3 -7 -7 -5 -11 6 -4 10 -3 15 3 11 6
-3 10 -1 10 4 0 6 -4 11 -10 11 -5 0 -10 7 -10 16 0 8 -4 12 -10 9 -5 -3 -10
0 -10 7 0 9 -3 9 -10 -2 -5 -8 -10 -10 -10 -5 0 6 5 16 12 23 9 9 9 12 -1 12
-7 0 -10 4 -7 8 2 4 -4 9 -15 9 -12 1 -17 -3 -13 -9 4 -7 2 -8 -4 -4 -17 10
-15 36 2 30 19 -7 15 24 -5 37 -13 8 -6 13 14 10 5 -1 6 3 3 8 -4 5 -2 12 4
16 5 3 10 15 10 26 0 11 4 18 9 14 17 -10 21 13 5 29 -8 9 -11 16 -5 16 6 0
11 7 11 15 0 8 6 13 13 11 6 -1 9 -1 4 1 -4 3 -5 8 -3 12 3 4 -4 7 -14 8 -25
2 -37 -16 -19 -29 11 -8 10 -9 -3 -4 -11 3 -18 0 -18 -7 0 -7 -5 -4 -11 6 -6
9 -14 15 -20 12 -5 -4 -9 1 -9 9 0 18 -16 21 -23 6 -3 -6 -4 -5 -3 2 1 7 -4
19 -12 27 -8 9 -12 25 -8 42 3 16 1 31 -4 34 -6 3 -7 -1 -3 -11 5 -14 3 -15
-18 -4 -30 16 -39 25 -17 17 12 -4 15 -2 11 9 -3 7 -9 14 -15 14 -5 0 -6 4 -3
10 4 6 -1 7 -10 3 -14 -5 -16 0 -15 23 3 47 1 56 -12 48 -10 -6 -10 -4 0 8 14
17 1 35 -17 23 -5 -3 -13 0 -17 6 -4 8 -3 9 4 5 7 -4 12 -2 12 3 0 6 -5 11
-11 11 -5 0 -8 4 -5 9 3 5 -1 12 -10 15 -8 3 -13 10 -9 15 3 5 0 13 -6 17 -8
5 -9 3 -4 -7 7 -12 6 -12 -6 0 -11 11 -11 14 -1 18 10 4 9 8 -4 18 -10 7 -17
25 -17 44 0 17 -5 31 -11 31 -6 0 -4 5 4 10 12 8 12 10 1 10 -10 0 -11 3 -2
13 9 11 5 13 -19 12 -29 -2 -37 5 -23 18 9 10 10 57 2 57 -4 0 -10 -6 -12 -12
-3 -7 -6 -3 -6 10 -1 15 3 21 11 16 7 -4 8 -3 4 5 -5 7 -16 9 -29 5 -20 -6
-21 -5 -7 11 9 12 10 16 2 11 -9 -6 -11 -1 -8 19 3 17 0 28 -10 32 -8 3 -14 9
-14 15 0 5 5 6 12 2 7 -5 8 -3 4 5 -5 7 -15 10 -24 6 -12 -4 -12 -1 4 16 10
12 13 19 5 14 -11 -6 -13 -4 -8 9 5 14 3 17 -8 13 -8 -4 -17 -1 -21 5 -4 6 -3
8 4 4 19 -12 21 10 2 24 -15 11 -17 17 -8 34 10 18 9 19 -4 9 -12 -11 -14 -9
-13 10 2 12 8 21 15 19 11 -3 11 0 1 12 -7 8 -9 21 -5 27 4 8 3 9 -4 5 -7 -4
-12 -1 -12 6 0 10 -3 9 -11 -2 -8 -11 -9 -6 -4 20 5 26 4 31 -4 20 -9 -13 -11
-13 -11 2 0 9 8 19 18 21 12 3 11 5 -6 6 -13 0 -21 5 -17 10 3 5 1 12 -5 16
-5 3 -10 12 -10 18 0 7 4 6 10 -3 8 -13 10 -12 10 3 0 9 -5 17 -11 17 -5 0 -7
5 -3 12 5 8 2 9 -12 4 -15 -6 -14 -3 5 18 22 23 21 31 -1 27 -7 -1 -12 39 -11
77 1 7 -5 11 -12 8 -7 -2 -16 1 -19 9 -3 9 0 12 9 9 10 -4 12 0 8 17 -4 13 -8
18 -11 11 -6 -19 -18 -14 -18 8 0 11 4 20 9 20 5 0 4 7 -3 15 -10 12 -10 18 0
30 10 12 10 15 -4 15 -19 0 -21 11 -4 28 9 9 9 12 -2 12 -11 0 -11 3 -2 12 9
9 7 17 -11 37 -12 13 -17 22 -12 18 6 -3 17 -2 25 4 9 5 10 9 4 9 -7 0 -15 7
-18 16 -3 8 -2 13 2 10 5 -3 8 13 8 34 0 22 -3 35 -7 29 -4 -8 -9 -8 -13 -1
-3 6 -2 13 4 17 15 9 12 37 -3 30 -6 -4 -5 -1 3 7 12 9 14 23 9 51 -3 20 -2
37 3 37 5 0 6 4 3 10 -10 17 -14 51 -5 45 5 -3 7 26 5 65 -2 51 0 68 8 64 8
-5 8 -2 0 6 -9 10 -10 17 -2 27 9 10 8 13 -1 13 -10 0 -10 3 0 15 9 10 9 15 1
15 -6 0 -11 7 -11 15 0 8 5 15 11 15 6 0 8 7 5 17 -4 9 -1 20 5 24 6 3 13 26
15 50 1 24 4 46 5 49 0 3 1 13 0 23 -1 9 3 17 8 17 6 0 11 5 11 11 0 5 -4 7
-10 4 -12 -8 -13 -3 0 29 6 18 6 26 -1 26 -6 0 -7 5 -4 10 4 6 10 8 14 6 4 -3
8 1 8 9 0 8 -5 11 -11 8 -6 -3 -5 0 1 8 7 7 13 17 13 22 0 4 -6 5 -13 2 -6 -4
-5 -1 4 7 9 7 14 19 12 26 -3 6 -1 12 4 12 4 0 9 17 10 37 1 20 7 39 14 43 6
4 9 12 5 18 -3 6 -2 14 4 17 8 5 7 11 -1 21 -10 12 -9 13 5 8 11 -4 16 -1 16
11 0 10 -5 14 -12 9 -7 -4 -5 2 4 13 10 11 18 29 18 41 0 11 4 23 9 26 8 5 24
63 26 92 0 6 7 20 15 30 13 16 13 17 0 10 -12 -6 -11 -4 1 6 9 7 14 18 12 24
-2 7 3 19 12 28 12 12 13 16 3 16 -8 0 -9 3 -2 8 10 6 26 38 28 54 1 3 4 10 8
14 5 4 8 16 8 26 0 10 4 18 9 18 5 0 12 16 15 35 4 19 12 35 18 35 5 0 8 7 4
15 -3 8 -1 15 4 15 6 0 10 9 10 20 0 11 7 23 15 26 8 4 15 15 15 25 0 11 5 25
10 32 12 13 63 98 136 224 11 18 22 33 27 33 4 0 7 4 7 10 0 11 77 121 143
205 92 118 325 360 416 433 26 20 53 44 61 52 8 9 33 29 55 46 22 16 49 37 59
46 11 10 38 30 60 45 23 16 46 33 51 39 10 12 180 123 243 159 17 11 32 24 32
29 0 5 3 7 6 3 4 -3 21 5 38 18 17 13 83 49 146 81 63 31 118 61 121 66 3 6
10 9 15 9 19 -2 44 11 44 21 0 6 3 8 6 5 4 -3 16 -1 28 5 11 7 23 13 26 13 3
1 19 8 35 15 17 7 33 13 38 12 4 -1 7 3 7 8 0 5 3 9 8 8 4 -1 20 4 35 10 16 7
34 12 42 12 7 0 15 5 17 11 2 6 15 13 28 14 14 2 39 9 55 16 17 6 35 13 40 15
6 1 24 8 40 15 17 7 34 11 39 10 4 -1 14 3 21 9 7 6 26 13 41 16 16 3 33 9 40
15 6 5 14 6 17 2 4 -3 7 -1 7 6 0 7 4 10 9 7 5 -3 24 0 42 8 19 7 44 12 57 10
13 -2 21 0 17 5 -3 6 3 10 12 10 17 0 58 8 58 11 0 2 28 9 50 12 11 2 23 8 27
14 4 6 21 10 37 9 17 -1 28 2 25 7 -3 4 1 8 8 9 7 1 27 3 43 5 76 11 102 14
130 16 17 1 33 6 36 11 4 6 27 11 50 12 24 1 54 7 67 14 15 8 22 8 22 1 0 -6
4 -9 8 -6 12 7 65 16 111 18 26 1 38 5 34 12 -4 6 1 5 10 -3 12 -10 17 -10 17
-1 0 7 11 10 28 9 15 -2 32 -1 37 2 6 3 37 5 70 4 33 -2 68 1 78 6 9 6 17 6
17 1 0 -4 8 -8 19 -8 12 0 17 5 13 15 -4 10 -1 12 7 7 7 -5 41 -8 74 -8z
m1931 -14 c3 -8 2 -12 -4 -9 -6 3 -10 10 -10 16 0 14 7 11 14 -7z m110 -42 c3
-5 -1 -9 -9 -9 -8 0 -12 4 -9 9 3 4 7 8 9 8 2 0 6 -4 9 -8z m116 -36 c0 -2 -6
-9 -14 -15 -11 -9 -16 -9 -22 0 -4 7 -3 9 4 5 6 -3 13 -2 17 4 6 10 15 14 15
6z m337 -196 c-1 -21 -10 -18 -13 5 -1 8 2 15 6 15 5 0 8 -9 7 -20z m214 -137
c13 -16 12 -17 -3 -4 -10 7 -18 15 -18 17 0 8 8 3 21 -13z m-537 -68 c-4 -8
-8 -15 -10 -15 -2 0 -4 7 -4 15 0 8 4 15 10 15 5 0 7 -7 4 -15z m639 -28 c3
-8 -1 -14 -8 -14 -7 0 -11 6 -8 14 3 7 6 13 8 13 2 0 5 -6 8 -13z m67 -41 c-4
-4 -16 -4 -26 2 -16 9 -14 10 8 9 15 -1 23 -6 18 -11z m-523 -61 c0 -8 -4 -12
-9 -9 -5 3 -6 10 -3 15 9 13 12 11 12 -6z m588 5 c-3 -5 -1 -10 6 -10 7 0 10
-2 7 -5 -3 -3 -13 -2 -22 1 -14 5 -15 9 -4 15 17 11 20 11 13 -1z m127 -112
c-6 -6 -16 -7 -22 -3 -9 6 -9 9 1 16 17 10 34 0 21 -13z m-517 -18 c3 -6 -1
-7 -9 -4 -18 7 -21 14 -7 14 6 0 13 -4 16 -10z m652 -102 c-3 -8 -6 -5 -6 6
-1 11 2 17 5 13 3 -3 4 -12 1 -19z m27 -27 c3 -5 -1 -11 -9 -14 -9 -4 -12 -1
-8 9 6 16 10 17 17 5z m-374 -126 c7 -9 8 -15 2 -15 -5 0 -12 7 -16 15 -3 8
-4 15 -2 15 2 0 9 -7 16 -15z m498 -80 c-3 -3 -9 2 -12 12 -6 14 -5 15 5 6 7
-7 10 -15 7 -18z m62 -20 c7 -8 9 -15 6 -15 -4 0 -14 7 -22 15 -9 8 -11 15 -6
15 5 0 15 -7 22 -15z m4 -43 c3 -5 -1 -9 -9 -9 -8 0 -12 4 -9 9 3 4 7 8 9 8 2
0 6 -4 9 -8z m-223 -209 c13 -17 13 -17 -6 -3 -11 8 -22 16 -24 17 -2 2 0 3 6
3 6 0 17 -8 24 -17z m420 -66 c-10 -9 -11 -8 -5 6 3 10 9 15 12 12 3 -3 0 -11
-7 -18z m-317 -80 c7 -6 6 -7 -4 -4 -8 2 -16 12 -17 23 -2 13 -1 15 4 4 3 -8
11 -19 17 -23z m6 -27 c0 -5 -2 -10 -4 -10 -3 0 -8 5 -11 10 -3 6 -1 10 4 10
6 0 11 -4 11 -10z m374 2 c3 -5 -1 -9 -9 -9 -8 0 -12 4 -9 9 3 4 7 8 9 8 2 0
6 -4 9 -8z m226 -407 c0 -2 -6 -5 -13 -8 -8 -3 -14 1 -14 8 0 7 6 11 14 8 7
-3 13 -6 13 -8z m100 -320 c7 -9 8 -15 2 -15 -5 0 -12 7 -16 15 -3 8 -4 15 -2
15 2 0 9 -7 16 -15z m32 -207 c-8 -8 -9 -4 -5 13 4 13 8 18 11 10 2 -7 -1 -18
-6 -23z m-25 -30 c-3 -8 -6 -5 -6 6 -1 11 2 17 5 13 3 -3 4 -12 1 -19z m-255
-25 c-6 -2 -9 -10 -6 -15 4 -7 2 -8 -5 -4 -13 9 -5 26 12 25 9 0 8 -2 -1 -6z
m283 -14 c11 -16 1 -19 -13 -3 -7 8 -8 14 -3 14 5 0 13 -5 16 -11z m-10 -28
c3 -5 2 -12 -3 -15 -5 -3 -9 1 -9 9 0 17 3 19 12 6z m55 -96 c0 -2 -10 -9 -22
-15 -22 -11 -22 -10 -4 4 21 17 26 19 26 11z m-275 -144 c3 -5 2 -12 -3 -15
-5 -3 -9 1 -9 9 0 17 3 19 12 6z m265 -25 c0 -2 -7 -7 -16 -10 -8 -3 -12 -2
-9 4 6 10 25 14 25 6z m40 -140 c0 -2 -7 -7 -16 -10 -8 -3 -12 -2 -9 4 6 10
25 14 25 6z m-7876 -922 c3 -8 2 -12 -4 -9 -6 3 -10 10 -10 16 0 14 7 11 14
-7z m36 -214 c0 -5 -2 -10 -4 -10 -3 0 -8 5 -11 10 -3 6 -1 10 4 10 6 0 11 -4
11 -10z m117 -285 c0 -8 -4 -15 -9 -15 -10 0 -11 14 -1 23 9 10 10 9 10 -8z
m170 -401 c-3 -3 -12 -4 -19 -1 -8 3 -5 6 6 6 11 1 17 -2 13 -5z m-490 -26
c-3 -8 -6 -5 -6 6 -1 11 2 17 5 13 3 -3 4 -12 1 -19z m520 -4 c-3 -3 -12 -4
-19 -1 -8 3 -5 6 6 6 11 1 17 -2 13 -5z m63 -124 c0 -14 -15 -19 -29 -10 -17
10 -5 31 14 23 8 -3 15 -9 15 -13z m100 -194 c-7 -7 -13 -7 -20 0 -6 6 -3 10
10 10 13 0 16 -4 10 -10z m105 -205 c3 -5 2 -12 -3 -15 -5 -3 -9 1 -9 9 0 17
3 19 12 6z m-500 -52 c-4 -5 -12 -9 -18 -8 -9 0 -8 2 1 6 6 2 9 10 6 15 -4 7
-2 8 5 4 6 -4 9 -12 6 -17z m550 -19 c3 -5 1 -10 -4 -10 -6 0 -11 5 -11 10 0
6 2 10 4 10 3 0 8 -4 11 -10z m-438 -23 c0 -8 -6 -14 -14 -14 -9 0 -10 4 -2
14 6 7 12 13 14 13 1 0 2 -6 2 -13z m478 -45 c-3 -3 -11 0 -18 7 -9 10 -8 11
6 5 10 -3 15 -9 12 -12z m-320 -126 c0 -15 -4 -21 -9 -16 -5 5 -6 16 -3 24 9
22 12 20 12 -8z m485 -10 c0 -2 -9 -6 -20 -9 -11 -3 -18 -1 -14 4 5 9 34 13
34 5z m120 -116 c0 -11 -4 -20 -9 -20 -5 0 -7 9 -4 20 4 17 0 20 -23 20 -22 0
-25 3 -15 9 20 13 51 -5 51 -29z m-70 24 c0 -8 -19 -13 -24 -6 -3 5 1 9 9 9 8
0 15 -2 15 -3z m-335 -73 c3 -5 2 -12 -3 -15 -5 -3 -9 1 -9 9 0 17 3 19 12 6z
m529 -93 c-4 -5 -9 -7 -12 -4 -3 3 -12 0 -21 -7 -14 -10 -14 -10 -4 4 13 16
46 23 37 7z m54 -23 c-1 -13 -5 -22 -9 -19 -4 2 -5 13 -2 24 4 16 2 19 -13 14
-15 -5 -16 -4 -4 4 19 14 30 6 28 -23z m-461 -31 c-3 -3 -12 -4 -19 -1 -8 3
-5 6 6 6 11 1 17 -2 13 -5z m678 -103 c-6 -5 -25 10 -25 20 0 5 6 4 14 -3 8
-7 12 -15 11 -17z m-421 -146 c3 -8 1 -15 -4 -15 -6 0 -10 7 -10 15 0 8 2 15
4 15 2 0 6 -7 10 -15z m669 -3 c15 -16 15 -19 2 -19 -8 0 -13 3 -10 5 3 3 0
11 -6 19 -17 20 -5 16 14 -5z m216 -115 c0 -9 -2 -8 -6 1 -2 6 -10 9 -15 6 -7
-4 -8 -2 -4 5 9 13 26 5 25 -12z m121 -31 c0 -3 -4 -8 -10 -11 -5 -3 -10 -1
-10 4 0 6 5 11 10 11 6 0 10 -2 10 -4z m393 -152 c4 -1 10 -2 13 -3 3 0 2 -6
-1 -12 -5 -7 -13 -5 -24 5 -10 9 -21 13 -26 9 -4 -5 -5 -2 -1 5 4 7 13 9 19 5
7 -4 15 -8 20 -9z m-809 -76 c-3 -4 -11 -5 -19 -1 -21 7 -19 12 4 10 11 0 18
-5 15 -9z m29 -3 c-3 -9 -8 -14 -10 -11 -3 3 -2 9 2 15 9 16 15 13 8 -4z
m1241 -33 c3 -5 -1 -9 -9 -9 -8 0 -12 4 -9 9 3 4 7 8 9 8 2 0 6 -4 9 -8z
m-903 -135 c-10 -9 -11 -8 -5 6 3 10 9 15 12 12 3 -3 0 -11 -7 -18z m996 -243
c-3 -3 -12 -4 -19 -1 -8 3 -5 6 6 6 11 1 17 -2 13 -5z"/>
<path d="M4340 6600 c-8 -5 -32 -8 -52 -6 -24 3 -36 0 -32 -6 4 -6 -2 -6 -14
1 -27 14 -35 14 -26 -1 5 -8 3 -8 -7 -2 -18 11 -59 13 -53 2 3 -5 -6 -7 -20
-4 -14 3 -26 0 -26 -5 0 -6 -6 -7 -17 0 -12 6 -21 5 -31 -7 -7 -10 -11 -11 -7
-4 3 6 1 12 -4 12 -6 0 -11 -5 -11 -10 0 -7 -7 -7 -21 0 -17 9 -23 8 -36 -7
-8 -10 -12 -12 -8 -5 6 12 -19 13 -40 1 -5 -3 -30 -7 -54 -8 -24 -1 -54 -7
-65 -13 -20 -11 -20 -10 -6 8 14 18 14 18 -5 3 -11 -9 -26 -14 -33 -12 -8 3
-10 -2 -6 -14 4 -14 4 -15 -4 -4 -6 9 -20 12 -38 8 -64 -12 -91 -18 -139 -34
-27 -10 -56 -16 -62 -15 -7 2 -13 -2 -13 -8 0 -5 -3 -9 -7 -9 -5 1 -10 1 -13
-1 -3 -1 -14 -3 -25 -5 -46 -9 -154 -52 -148 -59 4 -4 0 -4 -9 -1 -9 4 -19 1
-23 -4 -3 -6 -11 -9 -16 -6 -5 4 -19 -1 -31 -9 -12 -9 -30 -16 -40 -16 -10 0
-18 -5 -18 -11 0 -5 -4 -7 -10 -4 -5 3 -10 2 -10 -3 0 -6 -10 -8 -22 -4 -14 3
-19 1 -14 -6 3 -6 -4 -13 -16 -17 -33 -9 -92 -39 -96 -48 -2 -4 -8 -5 -13 -1
-5 3 -9 1 -9 -3 0 -5 -8 -9 -17 -10 -10 -1 -29 -6 -43 -11 -14 -5 -28 -9 -31
-8 -4 0 -16 -7 -26 -17 -11 -9 -23 -14 -26 -10 -4 3 -7 1 -7 -6 0 -7 -6 -11
-13 -8 -12 4 -34 -12 -33 -25 1 -3 -3 -10 -7 -15 -5 -4 -8 -3 -7 2 5 23 -1 23
-26 0 -14 -13 -26 -32 -27 -43 0 -10 -8 -19 -17 -19 -33 0 -41 -3 -35 -13 3
-5 1 -10 -5 -10 -6 0 -8 -4 -5 -10 3 -5 -3 -10 -14 -10 -21 0 -27 -11 -14 -23
3 -4 13 -1 22 6 14 10 14 10 3 -5 -7 -9 -22 -15 -33 -13 -11 2 -17 0 -14 -6 4
-5 -1 -12 -10 -15 -9 -4 -14 -12 -11 -19 3 -8 -2 -16 -11 -19 -8 -4 -13 -13
-9 -21 3 -8 1 -15 -5 -15 -6 0 -7 -5 -3 -12 5 -8 2 -9 -10 -5 -9 4 -15 3 -12
-2 3 -4 -11 -21 -31 -37 -40 -31 -50 -40 -162 -142 -95 -86 -134 -128 -217
-232 -38 -47 -71 -87 -74 -90 -14 -13 -121 -180 -141 -220 -13 -25 -29 -51
-36 -58 -7 -7 -13 -20 -13 -28 0 -8 -5 -14 -12 -14 -6 0 -8 -3 -5 -7 4 -3 0
-15 -10 -25 -9 -10 -13 -18 -8 -18 4 0 3 -6 -3 -12 -10 -13 -101 -230 -107
-258 -2 -8 -4 -16 -5 -17 -2 -2 -3 -6 -4 -10 -1 -5 -5 -14 -10 -22 -6 -9 -5
-12 2 -7 6 3 5 -5 -3 -21 -7 -16 -16 -44 -18 -63 -3 -19 -6 -35 -7 -35 -4 0
-19 -92 -23 -152 -1 -13 -5 -23 -9 -23 -5 0 -8 -7 -8 -16 0 -9 5 -12 13 -8 7
5 7 1 -2 -10 -16 -19 -22 -56 -10 -56 4 0 6 -10 3 -22 -18 -80 -18 -179 -1
-190 9 -6 8 -8 -3 -8 -9 0 -11 -3 -5 -8 6 -4 10 -14 10 -22 -1 -8 3 -21 8 -27
6 -9 6 -13 -1 -13 -6 0 -9 -10 -6 -22 2 -13 5 -35 6 -50 1 -16 5 -28 9 -28 9
0 3 -65 -7 -82 -6 -11 -5 -11 8 0 13 11 15 8 12 -18 -3 -22 0 -29 9 -25 6 4 4
0 -6 -8 -15 -12 -15 -16 -3 -20 8 -3 17 -2 20 4 2 5 3 4 2 -3 -2 -7 -9 -12
-15 -11 -6 2 -11 -2 -11 -7 0 -6 6 -10 13 -10 9 0 8 -3 -2 -9 -8 -5 -9 -10 -3
-12 6 -2 12 -11 14 -19 2 -8 12 -21 23 -28 12 -8 14 -11 4 -9 -9 3 -16 -1 -16
-9 0 -8 6 -13 13 -10 7 3 11 0 8 -7 -2 -7 8 -18 23 -25 16 -6 19 -9 7 -6 -19
4 -22 0 -22 -31 0 -29 3 -34 13 -25 11 9 12 7 8 -9 -3 -12 -1 -21 6 -21 6 0
11 -12 11 -26 0 -14 4 -23 10 -19 6 4 10 -5 10 -20 0 -16 4 -24 11 -19 7 4 9
-1 7 -12 -6 -27 20 -76 35 -67 7 4 5 -2 -3 -12 -8 -10 -10 -16 -4 -12 7 4 14
-2 17 -13 3 -11 0 -20 -6 -21 -7 0 2 -7 18 -14 17 -8 24 -14 18 -15 -21 0 -15
-28 7 -35 11 -4 17 -11 14 -17 -5 -7 -1 -9 9 -5 13 5 17 1 17 -14 0 -13 4 -18
13 -13 9 6 9 4 1 -7 -13 -16 -15 -51 -2 -43 4 3 8 -2 8 -10 0 -10 6 -13 15 -9
9 3 15 2 14 -3 -3 -20 2 -34 12 -31 6 1 13 -9 15 -22 3 -14 7 -27 11 -30 3 -3
4 4 1 16 -4 13 -1 24 7 27 10 3 12 -5 9 -32 -3 -27 -1 -33 6 -22 8 13 10 12
10 -2 0 -10 5 -18 11 -18 5 0 7 -4 4 -10 -3 -5 2 -10 12 -10 15 0 16 -2 3 -10
-11 -7 -11 -10 -2 -10 8 0 10 -5 6 -12 -5 -8 0 -7 11 2 17 14 17 13 10 -9 -6
-20 -5 -23 10 -17 15 5 16 4 6 -8 -11 -13 -9 -15 8 -11 11 2 23 -1 27 -6 3 -5
2 -9 -3 -8 -24 4 -21 -4 8 -28 18 -16 37 -27 42 -25 5 1 6 -1 4 -5 -8 -13 11
-53 25 -53 9 0 9 3 -2 10 -10 7 -11 10 -2 10 10 0 33 -39 36 -62 1 -3 5 -10
10 -15 5 -5 6 -3 2 5 -4 7 -2 12 6 12 19 -1 53 -29 45 -37 -4 -3 -13 2 -20 12
-12 15 -14 15 -14 1 0 -17 31 -31 47 -21 6 4 10 3 9 -2 -4 -21 2 -33 15 -33 8
0 18 -9 21 -20 7 -21 25 -28 25 -10 0 6 5 10 10 10 7 0 7 -6 1 -19 -8 -15 -7
-20 5 -25 9 -3 21 -3 26 1 6 3 8 1 5 -4 -7 -12 20 -26 33 -18 4 3 14 -3 21
-12 8 -10 9 -14 2 -10 -6 4 -14 3 -18 -3 -3 -5 3 -10 14 -10 10 0 21 3 24 8 2
4 3 2 1 -4 -4 -16 17 -34 39 -34 10 0 16 -4 12 -10 -3 -5 -13 -6 -23 -3 -16 6
-16 6 0 -10 18 -18 33 -23 24 -8 -3 5 2 12 11 15 10 4 14 4 11 0 -14 -14 13
-45 33 -39 12 4 19 2 19 -7 0 -11 2 -11 9 0 7 11 9 11 14 -2 4 -9 17 -16 29
-16 19 0 20 2 8 11 -13 9 -13 10 0 6 9 -2 14 -13 12 -28 -2 -18 0 -20 7 -10 7
11 10 10 13 -5 2 -14 13 -19 43 -19 29 -1 40 -6 40 -17 0 -22 26 -50 42 -44 7
3 13 0 13 -6 0 -6 9 -3 20 7 11 10 23 15 27 12 3 -4 1 -7 -6 -7 -7 0 -9 -5 -5
-12 4 -7 3 -8 -4 -4 -7 4 -12 2 -12 -3 0 -9 20 -14 46 -10 4 0 11 -5 15 -13 7
-10 9 -10 9 2 1 9 6 6 16 -10 9 -14 13 -17 10 -6 -5 14 -2 17 10 12 8 -3 21
-6 27 -6 7 0 6 -4 -3 -10 -13 -8 -12 -10 4 -10 10 0 25 8 33 18 13 15 13 15 4
-5 -14 -29 -15 -28 15 -31 14 -1 31 -5 37 -9 17 -10 47 -11 41 -1 -3 4 4 8 15
8 12 0 21 -5 21 -11 0 -5 -4 -7 -10 -4 -5 3 -10 2 -10 -4 0 -5 5 -13 10 -16 6
-3 10 -2 10 3 0 12 32 11 49 -2 11 -8 13 -8 7 2 -4 7 -1 12 9 12 9 0 14 -4 10
-9 -3 -6 4 -15 15 -21 11 -6 20 -8 20 -4 0 3 12 -1 26 -11 15 -9 23 -12 20 -6
-10 15 5 13 28 -4 16 -12 22 -12 35 -2 9 8 12 8 8 1 -4 -8 2 -11 18 -10 18 1
23 5 19 18 -2 9 1 20 7 24 8 5 10 2 6 -8 -9 -25 4 -30 26 -11 19 17 20 17 9
-3 -9 -16 -8 -21 4 -21 7 0 14 7 15 16 0 14 1 14 6 1 16 -41 58 -44 73 -6 8
19 9 18 10 -9 0 -16 4 -25 8 -20 4 6 16 17 27 25 11 8 17 11 13 6 -3 -4 1 -16
10 -26 12 -14 19 -17 29 -8 7 6 13 7 13 3 0 -4 6 -2 14 4 11 9 16 9 22 0 5 -8
3 -9 -6 -4 -9 5 -11 4 -6 -4 6 -9 11 -9 22 0 11 9 14 8 14 -2 0 -11 2 -11 10
1 8 13 11 13 19 1 5 -7 14 -10 20 -7 6 4 11 1 12 -6 0 -7 4 -4 9 7 5 11 9 14
9 6 1 -8 7 -11 17 -7 10 4 13 2 8 -6 -5 -7 -2 -9 8 -5 9 3 20 1 26 -5 6 -6 12
-6 16 1 4 6 12 11 17 11 6 0 8 -4 5 -8 -3 -5 1 -9 9 -9 8 0 12 5 8 10 -3 5 4
4 15 -2 28 -15 32 -14 26 7 -5 15 -4 15 6 -1 9 -14 15 -16 26 -6 11 9 14 8 14
-2 0 -9 3 -10 8 -4 10 16 54 17 45 2 -5 -9 -2 -8 9 0 8 7 18 10 21 6 4 -3 14
0 24 8 15 12 16 12 8 -1 -8 -13 -7 -13 8 -1 14 11 17 11 17 0 0 -9 3 -10 8 -4
4 6 17 10 30 9 12 -1 22 3 22 7 0 11 23 7 31 -4 3 -5 13 -2 21 7 12 11 18 12
28 3 10 -10 12 -8 7 5 -3 9 1 22 11 30 15 12 16 11 4 -4 -16 -21 2 -35 23 -18
11 9 15 9 15 1 0 -6 5 -11 11 -11 5 0 7 5 4 10 -7 11 -3 12 73 12 29 0 55 5
58 9 3 5 10 7 15 4 5 -4 9 -3 9 2 0 4 19 9 43 9 23 1 53 6 67 11 14 6 28 10
31 9 3 0 13 5 22 12 9 8 21 11 27 7 6 -4 22 1 35 9 14 9 25 13 25 9 0 -5 5 -1
10 7 9 13 10 13 10 0 0 -12 2 -12 9 -2 4 7 18 14 29 15 12 1 22 5 22 10 0 5 7
7 15 3 8 -3 15 -1 15 5 0 6 4 8 9 4 5 -3 12 -1 16 5 3 5 16 8 28 6 12 -2 28 1
36 7 7 6 20 12 29 14 9 1 18 6 20 11 2 6 12 8 23 5 13 -4 19 -1 17 8 -2 8 3
13 10 12 6 -2 12 2 12 9 0 6 3 8 7 5 3 -4 12 -2 20 5 7 6 16 8 19 5 4 -3 12
-1 20 6 28 25 40 32 59 35 11 2 30 10 43 18 12 8 22 11 22 7 0 -5 4 -2 9 6 5
8 18 16 28 17 9 2 19 8 21 14 2 5 8 8 13 4 5 -3 9 0 9 6 0 6 4 9 10 5 5 -3 18
3 30 15 12 12 20 15 20 8 0 -7 5 -5 11 5 5 9 17 17 24 17 8 0 15 4 15 9 0 5
11 12 25 15 14 4 22 12 20 19 -5 12 63 57 88 57 8 0 22 9 32 20 10 11 20 18
23 16 2 -3 10 0 17 7 7 7 22 19 35 27 12 8 34 26 49 40 15 14 51 45 80 70 55
46 248 237 289 285 12 15 22 31 22 36 0 6 5 7 10 4 6 -3 10 0 10 9 0 8 3 16 8
18 10 4 123 149 182 233 19 28 38 52 42 53 4 2 8 10 8 18 0 8 4 14 9 14 5 0
13 10 17 23 4 12 9 24 13 27 16 13 51 71 51 85 0 8 4 15 9 15 5 0 14 15 21 33
8 17 20 41 29 51 13 16 13 18 1 11 -12 -7 -12 -5 1 11 15 17 52 82 54 94 0 3
7 16 15 30 7 14 13 26 12 28 -6 9 0 32 7 28 5 -4 7 3 4 14 -4 13 1 26 13 35
11 9 14 14 6 15 -10 0 -10 5 1 23 8 12 19 42 26 67 7 25 17 53 22 63 6 12 5
17 -3 17 -8 1 -6 6 5 14 20 15 22 32 5 39 -8 4 -7 6 4 6 11 1 15 7 11 21 -3
12 0 20 7 20 7 0 5 6 -5 16 -15 15 -15 18 1 35 13 15 14 19 3 19 -11 0 -11 2
1 10 13 9 13 10 0 10 -12 1 -11 3 3 11 13 8 15 14 7 30 -8 13 -8 19 0 19 6 0
8 5 5 10 -4 6 -11 7 -17 4 -7 -4 -8 -2 -4 5 4 6 12 9 17 6 5 -4 9 1 9 10 0 10
-5 14 -12 10 -7 -4 -4 1 6 9 13 10 15 16 7 16 -11 0 -12 13 -8 54 4 39 1 60
-10 75 -9 14 -10 21 -2 19 6 -2 14 3 17 11 3 8 0 11 -7 7 -6 -4 -11 -2 -11 3
0 6 8 11 18 12 10 0 12 3 5 6 -16 6 -17 35 -2 50 8 8 7 13 -2 18 -8 5 -10 4
-5 -3 5 -8 1 -10 -9 -5 -9 3 -13 9 -8 12 14 9 24 41 14 41 -5 0 -11 -6 -14
-12 -3 -7 -4 -3 -4 10 1 12 7 22 14 22 7 0 13 7 13 16 0 14 -3 15 -17 3 -10
-7 -15 -10 -11 -5 4 5 2 18 -4 30 -10 19 -9 19 4 8 10 -8 19 -9 22 -4 3 6 -1
13 -10 16 -13 5 -14 9 -4 21 9 11 9 15 1 15 -7 0 -9 5 -6 10 3 6 1 10 -4 10
-6 0 -11 5 -11 11 0 5 6 7 13 3 9 -5 9 -4 0 6 -6 7 -9 19 -6 26 3 8 0 14 -7
14 -6 0 -8 -4 -5 -10 4 -6 -1 -7 -11 -3 -12 4 -14 8 -6 11 10 3 10 7 2 17 -8
9 -8 15 0 20 5 3 10 -1 10 -9 0 -9 5 -16 10 -16 6 0 4 13 -5 30 -9 17 -13 30
-10 30 3 0 0 6 -7 14 -7 8 -16 12 -20 9 -5 -2 -8 0 -8 6 0 5 8 12 18 14 16 4
16 5 -1 6 -14 1 -16 5 -8 19 7 14 6 19 -4 19 -8 0 -12 -4 -9 -9 3 -4 0 -8 -5
-8 -19 0 -12 30 7 31 13 0 12 2 -5 9 -25 10 -31 30 -10 30 8 0 7 4 -3 10 -8 5
-10 10 -5 10 6 0 -1 7 -15 16 l-25 15 25 -6 c19 -5 21 -4 10 4 -8 6 -15 16
-16 23 0 7 -2 23 -2 36 -2 17 -8 22 -29 22 -19 0 -24 3 -15 9 11 6 10 10 -4
15 -16 6 -16 9 -4 16 12 7 10 11 -10 19 -14 5 -21 10 -16 10 5 1 2 9 -5 18
-10 11 -10 14 -1 9 6 -4 12 -2 12 3 0 10 -14 15 -33 12 -5 -1 -6 3 -2 8 3 6
13 7 22 4 11 -5 14 -3 9 6 -5 7 -16 11 -26 8 -13 -3 -16 1 -14 19 2 19 -3 24
-19 25 -21 0 -21 1 -2 9 14 6 16 9 5 10 -8 2 -18 2 -21 2 -3 0 -18 11 -35 24
-16 14 -23 22 -15 18 9 -4 12 -2 9 7 -3 8 -12 14 -21 14 -9 0 -22 6 -29 14
-10 10 -10 12 0 7 7 -4 12 -1 12 8 0 8 -5 16 -11 18 -9 3 -9 10 1 27 7 15 8
21 1 17 -6 -4 -11 -2 -11 4 0 6 -4 8 -10 5 -9 -5 -15 9 -7 18 1 2 -6 11 -16
21 -9 10 -14 22 -11 28 4 6 -3 8 -17 6 -16 -2 -24 2 -24 12 0 8 -4 15 -10 15
-18 0 -35 16 -29 27 4 6 1 9 -7 6 -8 -3 -13 -14 -11 -24 2 -16 1 -16 -7 -4 -7
9 -7 18 -1 24 16 16 12 26 -10 26 -11 0 -20 5 -20 10 0 6 -5 10 -11 10 -5 0
-8 -4 -5 -8 3 -5 -1 -9 -9 -9 -8 0 -12 4 -9 8 2 4 0 11 -6 14 -8 5 -7 12 2 23
11 13 10 15 -4 9 -20 -7 -25 8 -5 17 6 3 -1 4 -18 1 -23 -4 -26 -3 -15 5 13 9
13 12 -3 25 -11 7 -26 11 -35 8 -14 -4 -14 -3 -3 5 8 6 21 8 30 5 14 -4 14 -3
1 5 -8 6 -17 9 -21 6 -4 -2 -9 3 -13 11 -3 8 -12 12 -21 9 -11 -5 -14 -2 -9
10 3 9 1 16 -6 16 -6 0 -8 -4 -5 -10 3 -5 1 -10 -6 -10 -7 0 -9 8 -6 21 4 17
3 19 -6 10 -14 -14 -41 -15 -32 -1 9 14 -18 12 -34 -2 -11 -11 -12 -10 -6 1 6
11 4 13 -11 8 -18 -7 -18 -7 -1 7 11 8 26 12 35 10 10 -3 6 1 -8 10 -14 8 -34
13 -45 12 -11 -2 -14 -1 -7 1 22 8 13 25 -10 17 -21 -6 -21 -6 -5 10 22 22 22
29 0 18 -10 -5 -24 -7 -32 -4 -8 3 -11 0 -7 -7 4 -6 5 -11 2 -11 -3 0 -10 10
-17 21 -6 12 -7 19 -2 16 5 -4 10 0 10 8 0 11 -5 12 -20 3 -15 -8 -18 -7 -12
3 6 9 3 11 -9 6 -14 -5 -15 -3 -6 12 7 15 6 20 -8 23 -16 5 -46 -15 -37 -24 2
-2 -5 -4 -15 -5 -11 -1 -20 2 -20 8 0 5 6 8 13 6 7 -1 11 7 10 23 -2 23 -2 23
6 5 7 -15 10 -16 10 -4 1 23 -8 29 -34 19 -20 -8 -23 -6 -20 11 2 11 0 17 -4
14 -5 -3 -12 2 -15 11 -6 15 -8 15 -27 -2 -11 -10 -20 -14 -19 -9 5 23 -1 35
-16 35 -10 0 -14 6 -11 14 4 10 0 14 -14 11 -10 -2 -19 0 -19 6 0 5 -11 9 -25
9 -29 0 -67 29 -58 44 4 6 -1 5 -10 -3 -16 -13 -14 -36 3 -26 5 3 11 2 14 -3
2 -4 -6 -8 -19 -8 -13 0 -22 3 -19 7 2 4 -5 18 -17 30 -11 13 -18 19 -15 13 3
-7 0 -17 -8 -23 -11 -9 -12 -6 -9 13 6 27 -13 30 -41 7 -11 -9 -16 -10 -16 -2
0 6 5 11 10 11 6 0 10 5 10 10 0 6 -7 10 -15 10 -8 0 -15 4 -15 10 0 5 -10 14
-21 21 -15 8 -19 8 -15 0 4 -6 2 -11 -3 -11 -6 0 -11 5 -11 11 0 8 -6 7 -17
-2 -9 -8 -14 -9 -10 -3 4 7 -2 12 -18 12 -14 0 -22 -5 -18 -11 3 -6 1 -7 -5
-3 -7 4 -12 15 -12 24 -1 15 -3 14 -17 -3 -12 -15 -14 -16 -10 -3 3 9 0 19 -9
22 -10 4 -13 1 -9 -7 4 -6 0 -4 -8 5 -13 16 -15 16 -31 0 -16 -16 -17 -16 -10
1 5 15 2 17 -20 13 -14 -2 -31 -8 -38 -12 -7 -4 -4 2 6 14 11 12 16 25 13 29
-4 3 -7 1 -7 -6 0 -7 -5 -9 -10 -6 -6 4 -7 12 -4 18 5 9 4 9 -5 1 -14 -13 -54
-7 -46 6 3 5 -4 6 -15 3 -11 -3 -17 -10 -13 -17 4 -7 1 -7 -8 1 -12 10 -18 10
-29 0 -7 -7 -6 -1 3 13 l16 25 -38 0 c-22 -1 -46 -6 -54 -13 -13 -11 -18 -9
-30 8 -8 12 -20 18 -30 15 -8 -4 -18 -1 -22 5 -5 8 -12 5 -22 -7 -8 -10 -11
-12 -7 -4 5 11 2 13 -15 8 -19 -5 -20 -3 -9 10 12 15 11 15 -10 4 -18 -10 -25
-9 -38 4 -19 18 -31 20 -16 2 8 -10 6 -13 -8 -13 -10 0 -16 4 -14 8 3 4 0 8
-5 8 -6 0 -11 -6 -11 -12 0 -9 -4 -8 -10 2 -9 13 -10 13 -10 0 0 -13 -1 -13
-10 0 -5 8 -10 11 -10 6 0 -5 -6 -3 -14 3 -11 9 -16 9 -22 0 -5 -8 -3 -9 6 -4
9 5 11 4 6 -3 -5 -9 -12 -9 -26 0 -14 9 -22 9 -34 -1 -19 -16 -22 -1 -4 17 9
9 7 12 -11 12 -12 0 -20 -4 -17 -8 2 -4 -4 -8 -14 -8 -10 0 -16 4 -14 8 8 13
-41 9 -54 -4 -10 -10 -15 -10 -22 2 -7 11 -12 12 -17 4 -9 -13 -65 -16 -57 -3
7 11 3 11 -16 -1z m1044 -185 c-4 -8 -11 -12 -16 -9 -6 4 -5 10 3 15 19 12 19
11 13 -6z m257 -112 c2 2 12 -5 22 -15 20 -21 10 -23 -17 -3 -10 8 -22 12 -26
10 -4 -2 -7 2 -7 10 0 10 4 12 12 5 7 -5 14 -8 16 -7z m99 -68 c0 -5 -5 -3
-10 5 -5 8 -10 20 -10 25 0 6 5 3 10 -5 5 -8 10 -19 10 -25z m-632 -20 c-3 -3
-9 2 -12 12 -6 14 -5 15 5 6 7 -7 10 -15 7 -18z m-803 -67 c13 -11 25 -10 25
3 0 5 -5 7 -12 3 -7 -4 -8 -3 -4 4 7 12 36 5 36 -9 0 -5 4 -9 10 -9 5 0 7 8 4
18 -5 15 -4 15 6 -1 9 -14 19 -17 37 -12 16 4 22 2 18 -5 -3 -5 1 -10 9 -10 9
0 16 6 16 13 0 9 3 8 9 -2 6 -8 16 -11 31 -6 17 6 21 4 15 -6 -5 -8 1 -6 12 4
14 12 23 15 28 7 3 -5 11 -7 17 -4 7 4 8 2 4 -5 -6 -9 -12 -9 -24 1 -15 11
-15 11 -4 -3 9 -12 26 -17 56 -15 24 0 42 -2 40 -6 -2 -4 0 -9 6 -13 5 -3 10
0 10 7 0 9 3 9 10 -2 9 -13 10 -13 10 0 0 9 3 11 8 4 11 -16 42 -25 42 -12 0
9 3 9 12 0 17 -17 28 -15 28 6 0 14 2 15 9 2 6 -8 7 -18 4 -24 -3 -5 -1 -6 6
-2 6 4 8 13 5 19 -4 7 1 4 11 -5 14 -13 24 -14 44 -7 25 9 25 8 7 -6 -11 -8
-15 -15 -9 -15 7 0 19 8 29 17 16 16 16 16 9 -6 -5 -16 -4 -21 4 -17 6 4 11 2
11 -5 0 -7 8 -6 25 5 23 15 29 14 26 -6 -2 -15 55 -45 78 -41 14 2 29 -2 34
-9 6 -9 7 -8 3 4 -3 10 0 20 6 24 6 4 8 3 5 -2 -3 -6 -2 -16 4 -24 7 -13 9
-13 9 0 1 9 6 6 16 -10 8 -14 13 -18 10 -8 -5 17 17 19 31 3 4 -4 2 -5 -4 -1
-18 10 -16 -9 1 -23 11 -9 16 -9 21 0 6 8 10 8 16 -3 5 -10 18 -14 34 -10 15
2 25 0 25 -7 0 -7 5 -9 13 -5 9 6 9 5 0 -7 -10 -12 -7 -15 20 -17 17 -2 35 -8
39 -15 4 -6 10 -8 14 -4 4 4 12 0 18 -9 6 -8 21 -16 34 -17 12 0 22 -5 22 -10
0 -5 6 -4 14 2 11 9 16 9 22 0 4 -8 3 -9 -4 -5 -7 4 -12 1 -12 -8 0 -16 34
-31 50 -21 6 3 10 -4 10 -17 0 -18 2 -20 10 -8 8 12 10 12 10 1 0 -10 3 -11
13 -3 10 9 13 5 13 -15 -1 -20 4 -27 21 -28 12 -1 19 3 16 8 -3 6 -1 7 5 3 7
-4 12 -13 12 -20 0 -23 22 -37 39 -23 12 10 13 9 6 -2 -6 -11 -4 -13 8 -8 9 3
19 1 23 -5 4 -6 3 -8 -3 -5 -5 3 -10 0 -10 -7 0 -8 8 -11 19 -8 17 4 23 -7 19
-32 -1 -5 6 -3 15 5 16 12 17 12 11 -3 -4 -12 1 -19 16 -24 12 -4 28 -14 35
-23 8 -9 11 -11 8 -4 -4 6 -2 14 3 17 10 7 9 -13 -1 -30 -4 -6 4 -9 23 -8 16
1 27 -2 24 -7 -3 -4 5 -15 19 -24 13 -9 27 -27 30 -41 4 -13 13 -24 22 -24 9
0 12 -5 8 -12 -5 -9 -3 -9 9 1 14 11 18 11 23 -3 3 -9 10 -13 15 -10 5 3 9 2
8 -3 -5 -28 2 -42 19 -36 16 7 16 6 0 -11 -23 -23 -23 -29 1 -16 28 14 38 13
17 -3 -16 -12 -16 -14 -2 -26 9 -7 13 -18 9 -25 -4 -6 1 -5 10 3 16 13 14 36
-3 26 -5 -3 -11 -1 -14 4 -7 11 13 9 32 -3 9 -5 10 -11 3 -20 -11 -13 -5 -26
11 -26 5 0 6 5 2 12 -4 7 -3 8 5 4 9 -6 9 -11 0 -22 -6 -8 -9 -17 -5 -21 3 -3
6 -1 6 5 0 7 4 12 10 12 5 0 6 -8 3 -17 -6 -15 -4 -16 8 -6 9 8 20 9 29 3 8
-6 11 -10 6 -10 -5 0 -2 -7 5 -16 8 -9 14 -22 15 -28 0 -6 2 -17 2 -25 1 -8 9
-11 20 -7 14 5 14 4 -2 -9 -11 -8 -14 -15 -8 -15 7 0 12 -8 12 -17 1 -22 25
-55 33 -46 4 3 7 -1 7 -11 0 -11 4 -15 13 -10 7 5 7 1 -2 -10 -13 -15 -11 -20
12 -42 24 -22 29 -30 26 -50 0 -3 7 -12 17 -18 11 -8 15 -20 11 -30 -4 -11 -1
-19 10 -23 15 -6 14 -7 -3 -14 -18 -7 -18 -8 0 -8 12 -1 16 -6 13 -15 -4 -10
-1 -13 8 -10 10 4 12 0 8 -15 -3 -12 -1 -21 6 -21 6 0 10 -6 9 -12 -2 -7 2
-12 8 -11 7 1 10 -6 7 -17 -3 -10 1 -33 8 -50 13 -27 21 -34 41 -31 4 0 5 -6
2 -14 -4 -8 -9 -15 -13 -15 -7 0 -7 -35 -1 -50 1 -3 2 -9 1 -14 -1 -5 4 -6 11
-3 9 3 13 -5 13 -27 0 -22 4 -30 14 -28 12 3 12 1 1 -13 -17 -20 -22 -45 -9
-45 5 0 7 -16 5 -35 -3 -19 0 -37 5 -41 5 -3 7 -10 4 -15 -3 -5 2 -6 12 -3 16
5 16 4 2 -8 -15 -12 -15 -15 -1 -28 10 -9 12 -15 4 -18 -9 -3 -9 -9 -2 -23 6
-10 8 -19 5 -19 -4 0 -3 -6 2 -12 11 -19 12 -37 3 -43 -5 -3 -7 4 -5 15 2 11
0 18 -5 15 -11 -7 -7 -29 8 -48 10 -12 10 -17 1 -23 -8 -5 -9 -3 -4 6 5 9 4
11 -3 6 -9 -5 -9 -13 -2 -26 12 -22 13 -53 2 -46 -4 2 -7 -13 -7 -35 0 -21 5
-39 10 -40 6 0 1 -4 -10 -9 -11 -5 -14 -9 -8 -9 9 -1 10 -8 3 -26 -7 -18 -6
-25 3 -25 8 0 7 -4 -3 -10 -8 -5 -11 -10 -7 -10 5 0 5 -6 0 -12 -4 -7 -9 -22
-10 -33 -2 -11 -6 -27 -10 -35 -3 -8 -7 -18 -8 -22 -2 -5 -3 -9 -5 -10 -1 -2
-3 -19 -5 -38 -9 -75 -8 -71 -82 -230 -30 -63 -54 -116 -54 -117 0 -2 -11 -15
-24 -29 -14 -15 -23 -29 -21 -32 3 -2 0 -10 -7 -17 -7 -8 -21 -25 -32 -39 -11
-14 -28 -36 -37 -47 -10 -12 -18 -26 -18 -31 0 -5 -4 -6 -10 -3 -5 3 -10 2
-10 -3 0 -9 -126 -139 -178 -183 -17 -15 -34 -24 -37 -21 -3 3 -5 -2 -5 -12 0
-9 -5 -14 -10 -11 -6 3 -13 -1 -16 -9 -3 -9 -12 -16 -20 -16 -8 0 -14 -4 -14
-10 0 -5 -5 -10 -10 -10 -6 0 -21 -9 -33 -21 -25 -24 -133 -89 -148 -89 -5 0
-9 -7 -9 -16 0 -8 -4 -12 -10 -9 -5 3 -10 1 -10 -5 0 -6 -4 -9 -9 -5 -5 3 -13
0 -17 -6 -9 -15 -208 -109 -229 -109 -10 0 -29 -6 -43 -14 -36 -19 -65 -30
-76 -27 -5 1 -12 -3 -16 -9 -4 -6 -17 -12 -28 -13 -12 -1 -22 -4 -22 -7 0 -4
-6 -7 -12 -7 -27 -2 -93 -15 -103 -21 -5 -4 -19 -7 -30 -8 -30 -4 -78 -14 -95
-21 -8 -3 -25 -5 -37 -4 -13 1 -23 -3 -23 -10 0 -9 -4 -8 -15 1 -12 10 -15 10
-15 0 0 -8 -9 -11 -25 -8 -13 3 -22 2 -20 -2 3 -5 -2 -11 -11 -14 -8 -3 -12
-2 -9 4 3 6 -1 10 -10 10 -9 0 -14 -4 -11 -9 7 -10 -13 -9 -29 1 -6 4 -17 3
-25 -2 -8 -5 -22 -4 -32 1 -14 7 -20 6 -24 -5 -5 -12 -10 -13 -26 -3 -16 9
-22 9 -25 -1 -3 -6 -10 -9 -15 -6 -18 11 -78 10 -78 -1 0 -5 -5 -3 -10 5 -6 9
-10 10 -10 3 0 -8 -9 -9 -30 -3 -18 5 -30 5 -30 -1 0 -5 5 -9 12 -9 6 0 8 -3
5 -6 -4 -4 -12 -2 -19 4 -15 11 -66 11 -85 -1 -8 -5 -13 -3 -13 4 0 10 -3 10
-11 2 -7 -7 -20 -8 -33 -4 -25 9 -37 8 -53 -2 -8 -5 -13 -3 -13 4 0 8 -4 8
-15 -1 -10 -9 -15 -9 -15 -1 0 15 -27 14 -33 -1 -3 -8 -6 -6 -6 5 -1 9 -6 17
-12 17 -5 0 -7 -6 -4 -12 4 -7 -1 -4 -9 6 -14 17 -16 18 -16 3 0 -19 -15 -23
-26 -6 -3 6 -15 9 -25 6 -11 -3 -17 -1 -13 4 6 11 -47 9 -62 -3 -14 -10 -27
18 -17 35 4 8 1 7 -9 -1 -13 -10 -19 -10 -32 3 -9 9 -16 12 -16 7 0 -5 -9 -12
-21 -15 -16 -4 -18 -3 -9 8 8 10 5 12 -15 13 -15 0 -22 -5 -18 -12 3 -6 3 -8
-2 -4 -4 4 -13 3 -20 -2 -8 -7 -12 -5 -12 5 0 8 5 11 11 8 6 -3 6 0 -1 7 -10
11 -15 11 -29 -1 -15 -12 -17 -12 -9 0 6 11 4 13 -7 8 -9 -3 -20 -1 -26 5 -6
6 -12 6 -17 -3 -6 -8 -4 -10 5 -4 9 5 11 4 6 -3 -5 -8 -13 -8 -31 0 -23 10
-29 20 -26 40 0 3 -7 5 -17 3 -9 -1 -23 2 -29 8 -14 11 -16 6 -7 -17 5 -12 10
-14 19 -6 8 7 16 7 19 2 3 -6 -3 -12 -14 -15 -13 -3 -24 1 -31 14 -5 11 -14
17 -20 14 -5 -4 -8 -1 -7 6 4 16 -49 31 -56 16 -3 -8 -8 -7 -15 3 -5 8 -8 17
-5 21 2 4 -7 6 -22 3 -32 -6 -66 4 -59 17 4 5 4 9 1 9 -2 0 -11 3 -20 6 -11 4
-16 0 -16 -12 0 -15 -2 -16 -9 -5 -5 8 -7 20 -4 28 4 9 0 11 -11 7 -9 -3 -14
-10 -11 -14 3 -4 -2 -13 -10 -20 -10 -9 -15 -9 -15 -1 0 6 4 11 8 11 4 0 8 9
9 20 1 14 -2 18 -10 13 -7 -5 -35 -8 -63 -8 -43 0 -50 3 -52 20 -1 16 1 17 8
5 5 -8 11 -12 15 -9 3 3 -5 14 -17 25 -12 10 -18 13 -14 7 10 -18 -12 -16 -31
2 -8 8 -19 13 -24 9 -5 -3 -23 8 -40 25 -17 17 -37 31 -45 31 -8 0 -14 4 -14
9 0 9 -33 24 -53 26 -4 0 -12 7 -18 15 -9 12 -10 12 -5 -3 3 -11 2 -16 -4 -12
-6 3 -10 0 -10 -7 0 -8 -5 -6 -11 5 -6 9 -14 15 -19 12 -4 -3 -11 2 -14 11 -3
8 -2 12 4 9 18 -11 11 1 -12 21 -12 10 -18 13 -14 7 4 -7 2 -13 -3 -13 -6 0
-11 7 -11 16 0 9 -5 12 -12 8 -8 -5 -9 0 -5 17 6 23 5 23 -8 5 -14 -18 -20
-15 -16 7 1 5 -4 7 -11 4 -7 -2 -11 -13 -10 -23 2 -10 1 -16 -3 -12 -6 5 -8
14 -14 48 -1 3 -6 -2 -11 -10 -8 -13 -10 -12 -10 3 0 20 -10 22 -30 5 -8 -7
-6 -2 5 11 11 14 14 21 6 16 -8 -4 -17 -2 -23 6 -8 11 -9 10 -4 -3 3 -10 1
-18 -4 -18 -6 0 -10 9 -10 20 0 14 -6 20 -17 18 -10 -2 -18 3 -19 10 -1 6 -3
15 -4 20 -1 4 -2 11 -1 15 1 5 -3 6 -9 2 -5 -3 -10 -1 -10 5 0 6 -5 8 -10 5
-6 -4 -8 -11 -5 -16 4 -5 -2 -6 -11 -2 -11 4 -13 8 -6 11 7 2 12 8 12 13 0 4
-6 6 -13 3 -8 -3 -20 3 -28 13 -12 16 -12 17 1 8 9 -5 4 0 -10 12 -30 27 -37
28 -37 8 0 -9 6 -14 14 -11 16 7 18 -20 1 -30 -6 -4 -8 -3 -5 3 4 6 1 13 -7
16 -8 3 -13 16 -12 31 3 23 1 24 -18 14 -17 -9 -19 -8 -8 3 17 19 15 34 -3 19
-14 -12 -15 -10 -11 15 5 26 4 27 -14 10 -18 -16 -18 -16 -14 2 3 11 -2 25
-12 34 -11 9 -15 9 -10 2 4 -7 2 -13 -3 -13 -6 0 -11 10 -11 21 0 17 -5 20
-25 17 -13 -3 -22 -1 -19 3 12 20 11 46 -2 46 -10 0 -11 -4 -3 -13 7 -8 7 -14
-1 -19 -6 -4 -10 -3 -9 2 3 19 -14 51 -25 47 -7 -3 -12 5 -13 18 -2 16 0 19 6
10 7 -11 9 -11 14 1 4 11 -1 14 -19 12 -18 -2 -22 1 -15 8 15 15 14 24 -4 24
-8 0 -12 -4 -9 -8 2 -4 0 -10 -5 -13 -5 -4 -8 5 -7 19 3 20 0 23 -15 15 -23
-13 -26 -13 -26 5 0 8 4 12 8 10 6 -4 6 3 0 34 -1 2 -7 -1 -14 -7 -10 -9 -13
-5 -11 19 2 26 0 28 -14 17 -14 -11 -15 -10 -8 7 15 39 18 50 9 40 -9 -12 -64
-14 -57 -3 3 4 14 8 25 8 11 0 18 4 14 10 -3 5 -12 7 -20 3 -10 -3 -15 1 -15
12 0 9 5 13 10 10 16 -10 11 1 -7 16 -11 10 -14 10 -9 2 4 -7 2 -13 -3 -13 -6
0 -11 9 -11 21 0 13 -4 18 -12 13 -10 -6 -10 -4 0 8 14 18 0 34 -19 22 -8 -4
-9 0 -4 15 7 23 -4 28 -24 9 -11 -11 -11 -9 -2 10 7 12 16 20 21 17 4 -3 7 2
6 11 -1 8 -8 19 -16 24 -7 4 -10 15 -7 24 4 9 2 16 -3 16 -5 0 -7 8 -4 18 5
13 4 14 -4 3 -6 -8 -8 -21 -5 -30 4 -13 3 -13 -5 -2 -6 8 -8 20 -5 28 3 7 -2
13 -12 13 -9 0 -13 5 -9 11 4 6 7 28 8 49 2 28 -2 36 -11 33 -10 -4 -11 -9 -3
-18 8 -9 8 -15 0 -20 -6 -4 -9 -1 -8 7 2 7 -2 12 -9 11 -6 -1 -10 5 -8 15 1 9
8 16 15 14 8 -2 10 3 5 15 -4 10 -8 29 -8 43 -1 22 -5 26 -28 24 -20 -1 -26 2
-24 15 1 9 10 15 21 13 11 -2 15 1 9 5 -5 4 -10 15 -10 23 0 8 -9 15 -20 15
-11 0 -21 6 -21 13 -1 6 -2 17 -3 23 0 5 -5 7 -11 4 -5 -3 -10 -1 -10 5 0 7 7
10 15 6 9 -3 15 0 15 9 0 9 6 12 18 9 9 -3 6 2 -8 10 -14 8 -20 15 -14 16 7 0
11 11 10 25 -1 23 -8 30 -29 26 -5 -1 -6 3 -2 9 3 6 10 8 14 5 12 -7 -1 49
-13 57 -7 5 -6 8 3 8 8 0 11 7 8 20 -3 12 1 24 11 30 12 6 13 9 3 10 -8 0 -11
6 -7 16 4 9 1 23 -5 30 -6 8 -8 14 -3 14 11 0 10 52 -1 70 -6 9 -4 11 4 5 9
-5 12 -1 10 11 -2 11 0 24 4 31 4 6 2 15 -4 19 -8 5 -9 3 -4 -6 5 -9 4 -11 -4
-6 -9 6 -9 11 0 22 6 8 8 14 3 14 -5 0 -2 5 6 10 13 9 13 10 0 10 -13 0 -13 1
0 10 12 8 12 10 1 10 -11 0 -11 3 0 17 12 14 12 16 -1 9 -8 -4 -7 -1 3 7 12
10 15 17 7 22 -8 5 -8 11 1 21 6 8 8 14 3 14 -4 0 -3 5 3 11 6 6 9 18 6 27 -5
11 -3 13 7 7 8 -5 11 -3 8 6 -3 8 1 31 8 53 8 21 11 42 8 47 -3 5 0 9 7 9 7 0
10 3 7 6 -4 3 -2 20 4 37 5 18 10 37 12 42 1 6 7 20 14 32 7 12 12 29 12 37 0
9 5 16 10 16 6 0 10 5 10 11 0 26 104 220 122 227 4 2 8 8 8 14 0 27 207 256
280 310 25 18 41 23 55 18 11 -4 23 -6 27 -4 4 3 9 0 12 -5 7 -11 63 15 86 39
8 9 11 10 6 3 -6 -9 1 -8 22 3 17 8 33 21 36 30 3 8 10 13 15 10 5 -3 11 0 14
8 3 8 17 20 31 28 64 34 141 83 144 90 2 5 10 4 17 -2 10 -8 15 -8 21 1 5 8 3
9 -6 4 -9 -5 -11 -4 -6 4 4 6 12 9 17 5 5 -3 16 0 24 6 8 7 15 9 15 4 0 -5 7
-1 15 10 7 10 18 15 23 12 5 -3 15 1 22 9 7 8 21 15 32 15 10 0 32 7 48 15 17
9 30 13 30 9 0 -3 11 1 24 9 18 12 26 13 36 4 10 -9 11 -9 5 2 -6 11 -4 13 9
8 11 -5 15 -3 10 5 -5 7 0 9 14 6 14 -4 20 -2 15 5 -4 7 0 8 11 4 10 -4 23 -4
29 0 7 4 17 8 22 9 6 0 16 2 23 2 7 1 10 7 6 13 -4 8 0 8 15 0 11 -7 21 -8 21
-2 0 5 7 12 16 15 8 3 12 2 9 -4 -3 -5 1 -7 9 -4 8 3 17 12 20 20 4 9 11 12
18 7 19 -11 38 -12 38 -2 0 5 3 8 8 8 22 -4 42 2 37 11 -3 6 -1 10 4 10 6 0
11 -6 12 -12 0 -10 2 -10 6 0 2 6 9 10 14 6 5 -3 9 1 9 8 0 9 3 9 10 -2 8 -12
10 -12 10 -1 0 11 3 11 15 1 12 -10 15 -10 15 0 0 8 3 10 7 7 3 -4 13 -1 21 6
13 9 14 9 8 0 -4 -9 -1 -13 9 -13 11 0 15 5 11 16 -3 8 -2 12 4 9 19 -12 50
-14 50 -3 0 7 6 6 15 -2 14 -12 20 -7 15 15 -1 5 2 6 7 2 4 -5 8 -13 8 -18 0
-5 5 -8 10 -6 6 1 9 6 7 10 -1 4 7 3 18 -3 19 -10 25 -6 20 15 -1 6 4 5 11 -2
8 -8 19 -9 36 -2 14 5 22 5 19 0 -7 -11 13 -9 32 2 7 5 12 3 12 -4 0 -8 5 -7
17 2 15 12 16 12 8 -1 -8 -13 -7 -13 8 -1 13 10 17 10 17 1 0 -10 3 -10 15 0
10 9 15 9 15 1 0 -6 5 -11 11 -11 5 0 7 6 3 13 -6 9 -5 9 7 0 13 -11 56 -16
107 -14 15 1 21 5 16 13 -5 7 -3 8 7 2 8 -4 20 -9 27 -10 10 -2 11 1 1 12 -11
13 -9 14 17 3 16 -7 33 -16 39 -21z m535 -42 c0 -2 -8 -10 -17 -17 -16 -13
-17 -12 -4 4 13 16 21 21 21 13z m161 -69 c-6 -8 -7 -18 -3 -22 4 -5 2 -5 -5
-1 -14 8 -6 36 9 36 7 0 6 -5 -1 -13z m1111 -54 c-6 -3 -10 -9 -7 -13 3 -5 1
-11 -4 -14 -11 -7 -9 13 3 32 4 7 11 10 15 6 3 -4 0 -9 -7 -11z m-906 -15 c4
-7 3 -8 -4 -4 -7 4 -12 2 -12 -5 0 -7 -3 -10 -6 -6 -6 5 3 27 11 27 2 0 7 -5
11 -12z m-2576 -2 c0 -3 -4 -8 -10 -11 -5 -3 -10 -1 -10 4 0 6 5 11 10 11 6 0
10 -2 10 -4z m3554 -72 c3 -8 2 -12 -4 -9 -6 3 -10 10 -10 16 0 14 7 11 14 -7z
m-604 -90 c0 -1 -13 -12 -28 -23 -22 -15 -29 -17 -29 -6 0 8 3 14 6 13 19 -2
32 3 27 10 -3 5 1 9 9 9 8 0 15 -2 15 -3z m753 -18 c3 3 4 -2 3 -12 -2 -10 -9
-20 -17 -22 -11 -3 -11 -1 1 7 13 9 8 15 -11 13 -3 -1 -6 6 -6 13 0 10 4 12
12 5 7 -5 14 -7 18 -4z m43 -51 c2 -11 -2 -12 -17 -2 -13 8 -15 13 -6 19 13 8
20 3 23 -17z m-782 -1 c3 -8 2 -12 -4 -9 -6 3 -10 10 -10 16 0 14 7 11 14 -7z
m-3004 -19 c0 -8 -2 -15 -4 -15 -2 0 -6 7 -10 15 -3 8 -1 15 4 15 6 0 10 -7
10 -15z m3918 -200 c-3 -3 -9 2 -12 12 -6 14 -5 15 5 6 7 -7 10 -15 7 -18z
m-624 -6 c-3 -5 -10 -7 -15 -3 -5 3 -7 10 -3 15 3 5 10 7 15 3 5 -3 7 -10 3
-15z m666 -63 c0 -3 -4 -8 -10 -11 -5 -3 -10 -1 -10 4 0 6 5 11 10 11 6 0 10
-2 10 -4z m40 -40 c0 -2 -7 -7 -16 -10 -8 -3 -12 -2 -9 4 6 10 25 14 25 6z
m80 -101 c0 -8 0 -18 1 -22 0 -4 -5 -9 -13 -11 -9 -2 -8 0 2 7 8 6 10 11 4 11
-6 0 -11 7 -11 15 0 8 4 15 9 15 4 0 8 -7 8 -15z m-473 -230 c0 -8 -4 -12 -9
-9 -4 3 -8 9 -8 15 0 5 4 9 8 9 5 0 9 -7 9 -15z m568 -123 c-3 -3 -11 0 -18 7
-9 10 -8 11 6 5 10 -3 15 -9 12 -12z m-390 -292 c3 -6 -1 -7 -9 -4 -18 7 -21
14 -7 14 6 0 13 -4 16 -10z m42 -176 c-3 -3 -12 -4 -19 -1 -8 3 -5 6 6 6 11 1
17 -2 13 -5z m-4447 -333 c0 -5 -7 -12 -16 -15 -14 -5 -15 -4 -4 9 14 17 20
19 20 6z m-280 -77 c0 -8 -19 -13 -24 -6 -3 5 1 9 9 9 8 0 15 -2 15 -3z m301
-47 c-10 -9 -11 -8 -5 6 3 10 9 15 12 12 3 -3 0 -11 -7 -18z m23 -85 c3 -5 -1
-9 -9 -9 -8 0 -12 4 -9 9 3 4 7 8 9 8 2 0 6 -4 9 -8z m76 -116 c0 -2 -7 -7
-16 -10 -8 -3 -12 -2 -9 4 6 10 25 14 25 6z m0 -126 c0 -5 -5 -10 -11 -10 -5
0 -7 5 -4 10 3 6 8 10 11 10 2 0 4 -4 4 -10z m100 -74 c0 -3 -4 -8 -10 -11 -5
-3 -10 -1 -10 4 0 6 5 11 10 11 6 0 10 -2 10 -4z m157 -262 c-3 -3 -12 -4 -19
-1 -8 3 -5 6 6 6 11 1 17 -2 13 -5z m-443 -99 c-4 -8 -11 -12 -16 -9 -6 4 -5
10 3 15 19 12 19 11 13 -6z m922 -247 c4 -7 4 -10 -1 -6 -4 4 -15 2 -24 -5
-14 -11 -14 -10 -2 6 16 20 18 21 27 5z m183 -85 c2 -1 -5 -1 -16 0 -11 0 -20
7 -20 14 0 10 4 10 16 1 9 -7 18 -13 20 -15z m63 -37 c6 4 8 2 4 -4 -3 -6 -2
-13 4 -17 5 -3 10 -12 10 -18 0 -7 -5 -4 -11 6 -6 9 -14 15 -18 13 -4 -3 -7 5
-8 17 0 12 1 16 4 9 3 -6 10 -9 15 -6z m-882 -18 c0 -4 -4 -8 -9 -8 -6 0 -12
4 -15 8 -3 5 1 9 9 9 8 0 15 -4 15 -9z m1269 -146 c-1 -15 -2 -15 -6 1 -4 14
-8 16 -19 6 -9 -7 -14 -8 -14 -1 0 12 21 22 33 15 4 -2 6 -12 6 -21z m71 -6
c0 -2 -9 -6 -20 -9 -11 -3 -18 -1 -14 4 5 9 34 13 34 5z m-1145 -36 c-3 -5
-12 -10 -18 -10 -7 0 -6 4 3 10 19 12 23 12 15 0z m20 -19 c3 -5 2 -12 -3 -15
-5 -3 -9 1 -9 9 0 17 3 19 12 6z m245 -175 c0 -2 -8 -10 -17 -17 -16 -13 -17
-12 -4 4 13 16 21 21 21 13z m211 -143 c13 -16 12 -17 -3 -4 -17 13 -22 21
-14 21 2 0 10 -8 17 -17z m103 -34 c-3 -5 -10 -7 -15 -3 -5 3 -7 10 -3 15 3 5
10 7 15 3 5 -3 7 -10 3 -15z m138 -51 c-7 -7 -12 -8 -12 -2 0 14 12 26 19 19
2 -3 -1 -11 -7 -17z m1583 -48 c-3 -5 -12 -10 -18 -10 -7 0 -6 4 3 10 19 12
23 12 15 0z m-1355 -6 c0 -8 -19 -13 -24 -6 -3 5 1 9 9 9 8 0 15 -2 15 -3z
m269 -41 c14 11 14 10 2 -6 -10 -13 -17 -15 -27 -6 -8 6 -14 14 -14 17 0 3 5
1 12 -6 9 -9 15 -9 27 1z m661 -19 c0 -8 -19 -13 -24 -6 -3 5 1 9 9 9 8 0 15
-2 15 -3z"/>
<path d="M5778 5573 c6 -2 10 -9 6 -14 -3 -5 0 -8 8 -7 7 2 12 -2 11 -7 -1 -6
7 -12 18 -12 16 -2 14 2 -10 23 -16 13 -33 24 -37 23 -5 0 -3 -3 4 -6z"/>
<path d="M4254 5488 c-4 -7 -3 -8 4 -4 7 4 12 2 12 -3 0 -14 -17 -14 -25 -1
-5 8 -11 8 -20 0 -10 -8 -14 -7 -18 2 -3 7 -6 4 -6 -7 -1 -16 -3 -17 -10 -6
-8 12 -14 13 -36 3 -14 -7 -24 -8 -21 -3 3 5 -5 8 -18 7 -14 0 -22 -6 -19 -13
3 -8 -4 -10 -22 -7 -15 3 -24 1 -22 -3 3 -4 -11 -7 -31 -7 -21 1 -43 -3 -49
-8 -9 -7 -13 -6 -13 3 -1 9 -5 8 -15 -5 -8 -11 -15 -14 -15 -8 0 7 -5 12 -11
12 -5 0 -7 -6 -3 -12 5 -8 0 -7 -11 2 -13 10 -16 11 -11 2 6 -10 3 -13 -10
-11 -11 2 -39 -6 -64 -18 -25 -11 -72 -30 -105 -43 -33 -13 -64 -30 -68 -37
-4 -7 -16 -13 -25 -13 -9 0 -28 -9 -42 -20 -14 -11 -29 -20 -34 -20 -7 0 -81
-54 -96 -70 -3 -3 -21 -17 -40 -32 -65 -49 -240 -230 -240 -248 0 -6 -4 -10
-9 -10 -4 0 -21 -19 -37 -42 -16 -24 -32 -45 -36 -48 -26 -20 -120 -185 -110
-195 4 -5 2 -5 -4 -2 -12 7 -30 -28 -39 -72 -2 -12 -9 -29 -15 -36 -8 -10 -7
-14 2 -18 8 -4 7 -6 -4 -6 -10 -1 -18 -6 -18 -12 0 -5 4 -7 10 -4 6 3 7 -1 4
-9 -3 -9 -11 -13 -18 -9 -7 4 -7 2 1 -8 8 -9 9 -19 3 -25 -5 -5 -10 -20 -12
-34 -2 -14 -7 -31 -12 -39 -7 -11 -6 -12 5 -6 12 8 12 6 1 -8 -8 -9 -11 -21
-7 -27 3 -5 1 -10 -4 -10 -6 0 -10 -11 -9 -25 2 -15 9 -25 18 -25 12 0 12 -2
1 -9 -8 -6 -11 -16 -6 -31 5 -17 4 -21 -6 -16 -8 4 -6 1 5 -8 13 -10 17 -24
14 -44 -3 -20 0 -28 7 -26 7 3 12 -2 12 -10 0 -8 -5 -13 -10 -9 -5 3 -4 -4 3
-16 6 -12 15 -19 21 -16 5 4 9 -1 9 -11 0 -9 8 -23 18 -31 16 -14 16 -14 0 -9
-10 3 -18 1 -18 -4 0 -6 5 -10 10 -10 6 0 10 -7 10 -15 0 -8 5 -15 12 -15 6 0
8 -3 4 -7 -4 -5 -14 1 -22 11 -8 11 -14 15 -14 9 0 -7 5 -15 10 -18 6 -4 8
-10 5 -15 -3 -5 -1 -11 5 -15 6 -4 8 -11 4 -16 -3 -5 -2 -9 3 -8 22 4 43 -2
38 -11 -3 -5 -1 -10 6 -10 7 0 10 -3 6 -6 -3 -4 0 -13 8 -21 18 -18 20 -37 3
-27 -9 5 -9 3 1 -9 7 -9 17 -14 22 -11 5 3 9 -7 10 -23 l1 -28 8 25 c8 24 8
24 9 3 1 -15 7 -23 19 -23 14 0 15 -2 2 -10 -13 -9 -13 -10 0 -10 13 0 13 -1
0 -10 -12 -8 -12 -10 -1 -10 8 0 12 -3 8 -6 -3 -4 0 -13 8 -20 17 -17 31 -18
18 -1 -13 17 -10 50 5 53 7 1 8 0 2 -3 -17 -8 -11 -23 8 -16 15 5 14 4 -2 -9
-18 -14 -18 -15 4 -21 12 -3 19 -10 16 -16 -10 -15 13 -24 29 -11 11 9 12 7 8
-9 -3 -12 -1 -21 5 -21 6 0 8 -10 6 -22 l-5 -23 10 23 c6 12 13 22 16 22 4 0
3 -4 0 -10 -3 -5 -1 -10 4 -10 6 0 11 -5 11 -11 0 -5 -5 -7 -12 -3 -7 4 -8 3
-4 -5 4 -6 12 -9 17 -6 5 4 9 1 9 -4 0 -6 -5 -11 -12 -11 -6 0 -8 -3 -5 -6 4
-4 13 -1 22 6 12 10 15 10 15 -4 0 -14 25 -22 54 -17 5 1 3 -6 -5 -15 -8 -10
-9 -15 -4 -12 6 3 15 0 22 -7 10 -11 10 -15 0 -18 -9 -4 -9 -6 0 -6 6 -1 18 6
27 14 17 17 30 20 21 5 -3 -5 1 -10 9 -10 8 0 24 -12 35 -26 12 -15 21 -23 21
-19 0 5 9 0 20 -10 10 -9 26 -15 35 -11 10 4 14 2 9 -5 -4 -8 1 -9 17 -4 24 7
24 7 4 -9 -19 -16 -19 -16 7 -6 22 7 26 6 21 -5 -3 -8 -9 -12 -14 -9 -5 3 -6
-2 -3 -10 4 -11 15 -14 31 -12 28 6 55 -3 48 -14 -6 -10 15 -7 34 4 10 6 12 5
7 -3 -5 -8 0 -10 17 -7 13 2 30 0 38 -6 11 -7 9 -8 -6 -4 -19 6 -19 5 -3 -7
10 -8 15 -17 11 -20 -3 -4 4 -4 17 -2 12 2 31 0 41 -5 12 -7 20 -7 24 0 3 5
12 10 18 9 9 0 9 -2 0 -6 -7 -2 -13 -9 -13 -14 0 -6 4 -8 9 -4 5 3 13 1 16 -5
5 -8 11 -8 20 0 10 8 14 7 17 -2 4 -10 9 -8 22 5 10 9 20 17 24 17 3 0 1 -5
-6 -12 -19 -19 -14 -29 9 -16 17 11 22 10 35 -6 14 -20 14 -20 15 0 0 10 3 13
6 7 2 -7 16 -13 29 -13 13 0 24 -4 24 -8 0 -4 10 -9 23 -9 12 -1 33 -5 45 -8
15 -4 21 -2 17 5 -3 5 -1 10 4 10 6 0 11 -3 11 -7 0 -7 55 -9 70 -3 3 1 13 2
23 1 9 -1 17 4 17 11 0 9 3 9 10 -2 8 -13 13 -13 31 -2 11 8 18 9 15 4 -3 -5
5 -12 19 -14 13 -3 24 -2 23 1 -2 19 3 24 11 12 8 -13 12 -13 27 0 15 12 16
12 9 0 -5 -9 -4 -12 2 -8 12 8 68 19 113 22 19 2 36 4 38 5 1 1 11 4 22 5 11
1 22 4 25 5 3 1 8 3 13 5 4 1 14 4 22 8 16 6 60 16 73 16 4 1 23 7 42 15 26
11 35 12 35 3 0 -8 3 -8 8 -2 6 9 16 12 57 18 5 1 16 9 23 17 10 11 12 11 6 1
-5 -10 -3 -12 7 -5 8 5 21 9 29 9 8 0 14 6 12 13 -1 8 2 11 8 7 5 -3 15 -3 21
1 8 4 7 9 -2 15 -9 5 -2 7 19 4 24 -3 36 1 45 16 6 10 18 19 25 19 7 0 10 5 7
10 -3 6 1 10 11 10 12 0 15 6 11 21 -4 13 -1 19 6 16 14 -5 39 18 30 27 -4 3
-1 6 5 6 7 0 12 4 12 9 0 5 -8 8 -17 6 -10 -1 -12 0 -5 2 6 3 12 8 12 13 0 5
7 7 15 4 10 -4 15 0 15 15 0 20 62 85 103 108 12 7 18 12 12 13 -5 0 2 8 15
17 14 10 32 26 41 38 10 11 29 34 44 50 38 43 85 112 85 124 0 6 5 11 10 11 6
0 10 5 10 10 0 6 11 28 25 51 14 22 23 44 20 49 -4 6 1 13 10 16 9 4 15 14 14
23 -1 9 3 29 10 45 18 45 32 116 25 128 -5 7 -2 8 5 4 8 -5 12 -3 10 5 -4 32
2 90 9 86 4 -3 8 6 8 19 2 22 0 23 -15 12 -11 -9 -10 -6 3 10 13 15 15 22 6
22 -10 0 -10 3 -1 14 9 11 9 16 0 21 -8 6 -7 10 2 16 10 6 11 9 2 9 -7 0 -13
5 -13 11 0 5 5 7 10 4 15 -9 12 8 -5 33 -14 20 -14 21 0 16 23 -9 18 6 -11 32
-14 13 -21 24 -15 24 6 0 7 11 2 28 -4 15 -6 33 -3 41 3 8 0 11 -7 7 -7 -5 -9
-1 -5 8 3 9 1 16 -5 16 -8 0 -9 5 -1 19 8 17 7 19 -15 16 -14 -1 -23 0 -20 3
2 3 -1 12 -8 21 -10 14 -10 14 5 3 15 -12 16 -10 6 22 -6 19 -15 33 -20 30 -4
-3 -8 4 -8 15 0 30 -11 51 -26 51 -8 0 -14 6 -14 13 0 7 -9 23 -19 34 -15 16
-17 23 -8 33 9 10 9 11 -2 5 -11 -6 -13 -4 -7 10 7 18 6 18 -13 1 -14 -13 -21
-14 -27 -5 -4 7 -3 10 3 6 15 -10 24 18 10 32 -6 6 -17 11 -23 11 -7 0 -16 5
-20 12 -4 6 -3 8 4 4 6 -3 13 -2 17 4 3 5 -1 10 -10 10 -9 0 -13 4 -10 10 3 6
-1 7 -9 4 -9 -3 -16 -1 -16 5 0 6 -8 11 -17 11 -15 0 -16 2 -3 10 13 9 13 10
0 11 -8 1 -18 1 -22 0 -5 0 -8 5 -8 12 0 8 -4 7 -10 -3 -8 -12 -10 -11 -10 8
0 12 -7 25 -15 28 -8 4 -13 9 -11 13 3 4 -4 12 -15 19 -14 9 -19 9 -19 1 0 -8
-4 -8 -15 1 -8 7 -13 16 -10 19 2 4 -2 8 -9 8 -8 0 -12 -7 -9 -16 2 -9 -1 -7
-8 4 -16 26 -31 35 -44 27 -5 -3 -3 3 5 13 9 11 10 16 3 11 -8 -4 -13 -2 -13
6 0 9 -3 9 -10 -2 -8 -13 -10 -13 -10 2 0 11 -6 15 -19 11 -10 -3 -22 1 -26 8
-6 8 -4 10 5 4 9 -5 11 -4 6 3 -4 7 -14 12 -22 12 -9 0 -12 -5 -8 -12 4 -7 3
-8 -4 -4 -7 4 -12 13 -12 20 0 7 -12 11 -30 10 -21 -1 -30 2 -30 14 0 8 -3 13
-6 9 -3 -3 -18 5 -32 18 -19 18 -29 21 -39 13 -12 -10 -17 -4 -14 15 1 9 -22
4 -30 -7 -4 -5 -12 1 -18 12 -7 13 -17 19 -26 16 -8 -4 -15 -1 -15 7 0 7 -3 9
-7 6 -3 -4 -12 -2 -20 5 -7 6 -16 8 -20 5 -3 -4 -13 -1 -21 6 -13 10 -14 9 -7
-3 8 -13 7 -13 -8 -1 -15 12 -66 20 -159 25 -16 0 -28 5 -28 10 0 5 -6 4 -13
-2 -8 -7 -18 -6 -31 3 -16 12 -21 12 -33 -1 -8 -7 -20 -14 -26 -14 -7 0 -6 5
3 11 12 8 7 9 -17 6 -19 -2 -33 1 -34 7 0 6 -4 2 -9 -9 -5 -11 -9 -15 -9 -9
-1 17 -29 25 -37 12z m360 -40 c-3 -4 -9 -8 -15 -8 -5 0 -9 4 -9 8 0 5 7 9 15
9 8 0 12 -4 9 -9z m240 -67 c3 -5 -1 -11 -9 -14 -9 -4 -12 -1 -8 9 6 16 10 17
17 5z m-890 -317 c-5 13 11 15 36 6 3 -1 13 -1 24 0 12 1 16 -2 11 -12 -6 -10
-5 -11 5 -1 10 9 17 10 27 2 9 -9 13 -8 13 0 0 13 32 11 42 -3 4 -6 12 -5 21
2 7 7 17 9 21 5 10 -11 37 -12 30 -2 -3 5 -1 9 5 9 5 0 11 -6 14 -12 3 -10 8
-9 22 2 17 14 18 13 11 -5 -5 -15 -4 -17 5 -8 14 14 42 5 32 -11 -4 -6 1 -5
10 3 9 7 17 9 17 4 0 -5 21 -10 47 -12 26 -1 50 -5 53 -9 11 -15 32 -13 27 3
-4 8 -2 15 3 15 6 0 10 -7 10 -16 0 -8 5 -12 10 -9 6 3 10 2 10 -3 0 -5 11 -7
25 -4 16 3 25 0 25 -8 0 -9 4 -9 17 1 9 8 14 9 11 4 -4 -6 3 -17 14 -24 18
-11 20 -11 15 3 -4 10 -1 13 8 9 8 -3 12 -10 8 -17 -4 -6 0 -6 9 2 12 9 18 10
23 2 5 -8 11 -8 19 -1 18 15 27 2 16 -20 -8 -14 -6 -19 10 -24 11 -3 20 -10
20 -15 0 -5 9 -7 20 -5 14 3 20 -2 20 -13 0 -15 2 -15 10 -2 8 13 11 13 19 1
5 -8 18 -12 30 -8 12 3 18 1 15 -4 -3 -5 2 -12 10 -15 9 -3 16 -13 16 -21 0
-8 5 -11 12 -7 8 5 9 2 5 -10 -4 -11 -3 -15 4 -10 6 4 15 0 20 -7 7 -11 9 -11
9 3 0 9 4 19 9 22 4 3 6 -6 3 -19 -4 -21 -1 -24 13 -18 13 4 16 3 11 -5 -4 -7
-3 -12 3 -12 5 0 12 6 15 13 2 6 4 1 3 -13 -2 -19 3 -25 16 -23 12 0 16 -4 13
-13 -3 -7 4 -18 15 -24 11 -6 17 -16 13 -23 -4 -7 2 -4 14 7 21 18 21 18 18
-11 -4 -26 -1 -29 22 -28 29 1 67 -29 57 -45 -4 -6 1 -13 9 -16 9 -3 13 -11 9
-18 -4 -6 0 -5 9 2 14 11 17 10 23 -7 3 -12 13 -21 21 -21 8 0 14 -4 14 -10 0
-5 -8 -7 -17 -3 -14 5 -12 1 4 -14 13 -11 20 -22 17 -26 -3 -3 0 -8 7 -13 8
-4 10 -3 5 4 -4 7 -5 12 -2 12 3 0 10 -10 17 -21 6 -12 7 -19 2 -16 -5 3 -15
2 -23 -4 -12 -7 -12 -9 3 -9 25 0 52 -26 34 -33 -7 -3 -5 -6 5 -6 12 -1 15 -6
11 -18 -4 -11 -3 -14 5 -9 7 4 12 1 12 -9 0 -9 8 -28 17 -43 13 -20 14 -24 3
-15 -13 10 -15 7 -16 -18 -1 -24 0 -27 10 -14 9 13 11 12 11 -9 0 -13 -4 -22
-9 -19 -5 3 -6 0 -4 -8 3 -8 12 -13 19 -11 8 2 11 0 7 -4 -4 -4 -2 -14 5 -22
9 -13 9 -14 0 -8 -7 4 -13 5 -13 2 0 -2 -3 -11 -6 -19 -3 -8 5 -25 18 -37 13
-13 18 -20 12 -16 -8 4 -12 -6 -13 -29 -4 -85 -5 -95 -11 -95 -6 0 -8 -8 -12
-50 -1 -11 -6 -20 -11 -20 -4 0 -6 -4 -3 -9 4 -5 3 -11 -1 -13 -5 -2 -20 -26
-34 -53 -15 -28 -33 -50 -42 -50 -9 0 -19 -3 -22 -7 -4 -4 -17 -3 -29 1 -19 6
-29 7 -52 2 -4 0 -1 -8 6 -16 11 -13 10 -14 -5 -9 -12 5 -16 4 -11 -4 4 -7 -2
-9 -19 -6 -14 2 -25 0 -25 -6 0 -6 -5 -8 -10 -5 -6 3 -13 -1 -16 -9 -3 -9 -12
-16 -20 -16 -8 0 -14 -5 -14 -10 0 -6 -20 -15 -44 -22 -25 -6 -42 -16 -39 -21
4 -6 -3 -8 -15 -5 -12 4 -22 2 -22 -2 0 -5 -8 -7 -17 -6 -9 2 -38 -6 -65 -16
-26 -10 -48 -15 -48 -11 0 4 -5 2 -12 -5 -9 -9 -15 -9 -26 0 -11 9 -16 9 -22
-3 -6 -10 -23 -15 -54 -14 -25 1 -46 -2 -46 -7 0 -4 -5 -8 -11 -8 -5 0 -7 5
-4 10 9 14 -9 12 -23 -2 -9 -9 -15 -9 -20 -3 -8 12 -51 13 -69 2 -6 -4 -13 -1
-16 5 -3 10 -8 9 -22 -2 -11 -9 -16 -10 -11 -2 10 16 -55 17 -72 0 -9 -9 -12
-9 -12 2 0 11 -3 11 -12 2 -18 -18 -32 -14 -17 5 13 15 12 15 -11 3 -14 -7
-26 -13 -28 -12 -46 27 -67 33 -70 23 -3 -8 -9 -6 -19 6 -8 10 -11 11 -7 3 6
-12 5 -13 -7 -3 -8 6 -27 14 -42 17 -15 2 -31 7 -36 10 -5 4 -12 2 -16 -3 -8
-14 -36 -1 -28 13 4 7 2 7 -7 -1 -10 -9 -16 -8 -27 3 -8 8 -19 12 -24 9 -5 -4
-9 -1 -9 4 0 6 -3 10 -7 10 -21 -3 -33 2 -33 16 0 15 -10 19 -44 15 -13 -1
-16 2 -10 12 4 7 4 10 -1 6 -4 -4 -15 -2 -23 5 -13 9 -14 9 -8 0 11 -19 -29
-16 -44 2 -7 9 -20 13 -29 10 -8 -3 -12 -3 -9 1 4 3 0 13 -8 21 -8 8 -12 18
-9 23 2 4 -7 8 -21 8 -25 0 -47 19 -38 33 6 11 -30 5 -39 -6 -5 -6 -7 0 -4 13
4 17 1 22 -14 22 -10 0 -19 5 -19 11 0 5 5 7 12 3 7 -4 8 -3 4 5 -4 6 -12 9
-17 6 -12 -8 -40 20 -31 31 4 5 -2 2 -12 -6 -18 -14 -19 -13 -13 3 4 11 2 17
-8 17 -8 0 -15 5 -15 11 0 5 -4 8 -9 5 -5 -3 -9 0 -8 7 1 32 -4 48 -13 42 -5
-3 -10 2 -11 12 0 16 -1 16 -8 -2 -8 -19 -9 -18 -12 5 -3 17 -10 24 -21 22 -9
-1 -20 3 -24 9 -4 8 -3 9 4 5 7 -4 12 -1 12 9 0 9 -4 14 -9 11 -5 -3 -14 1
-21 9 -11 13 -10 15 6 10 14 -5 13 -3 -4 7 -18 11 -20 16 -10 27 10 11 10 12
1 7 -8 -4 -13 -2 -13 5 0 7 -3 10 -6 6 -9 -9 -34 19 -39 43 -3 14 0 18 8 13 7
-4 6 0 -2 10 -9 12 -10 17 -2 17 7 0 9 5 6 10 -4 6 -11 7 -17 4 -8 -5 -9 -1
-5 10 5 11 3 15 -5 10 -8 -5 -9 -2 -5 9 3 10 2 17 -3 17 -6 0 -10 -6 -11 -12
0 -7 -4 -4 -8 7 -5 11 -4 25 1 33 7 7 7 12 1 12 -9 0 -11 21 -13 98 0 12 -5
22 -10 22 -7 0 -7 6 -1 18 11 20 10 40 -2 59 -6 9 -3 11 9 6 13 -5 15 -3 9 7
-14 22 -5 99 17 157 18 50 112 163 135 163 5 0 18 8 29 18 24 22 140 80 173
87 14 2 29 9 34 14 5 5 16 7 25 4 10 -4 13 -2 8 5 -4 6 1 11 11 11 27 -1 76
11 88 21 6 5 17 5 25 0 8 -5 21 -5 31 1 12 6 20 5 24 -1 5 -8 11 -7 21 1 11 9
14 9 14 0 0 -7 5 -9 10 -6 6 4 7 12 3 18 -4 7 5 4 20 -6 20 -13 25 -14 21 -3z
m731 -124 c3 -6 -1 -7 -9 -4 -18 7 -21 14 -7 14 6 0 13 -4 16 -10z m764 -63
c0 -9 -2 -8 -6 1 -2 6 -10 9 -15 6 -7 -4 -8 -2 -4 5 9 13 26 5 25 -12z m-424
-117 c-3 -5 -12 -10 -18 -10 -7 0 -6 4 3 10 19 12 23 12 15 0z m-42 -14 c4
-10 1 -13 -8 -9 -8 3 -12 9 -9 14 7 12 11 11 17 -5z m117 10 c0 -2 -8 -10 -17
-17 -16 -13 -17 -12 -4 4 13 16 21 21 21 13z m-40 -56 c0 -5 -5 -10 -11 -10
-5 0 -7 5 -4 10 3 6 8 10 11 10 2 0 4 -4 4 -10z m65 -70 c-3 -5 -12 -10 -18
-10 -7 0 -6 4 3 10 19 12 23 12 15 0z m125 -44 c0 -2 -8 -10 -17 -17 -16 -13
-17 -12 -4 4 13 16 21 21 21 13z m-35 -46 c3 -5 1 -10 -4 -10 -6 0 -11 5 -11
10 0 6 2 10 4 10 3 0 8 -4 11 -10z m-2318 -345 c0 -8 -4 -12 -9 -9 -5 3 -6 10
-3 15 9 13 12 11 12 -6z m578 -174 c3 -5 2 -12 -3 -15 -5 -3 -9 1 -9 9 0 17 3
19 12 6z m-511 -87 c5 -14 4 -15 -9 -4 -17 14 -19 20 -6 20 5 0 12 -7 15 -16z
m67 -61 c13 -16 12 -17 -3 -4 -17 13 -22 21 -14 21 2 0 10 -8 17 -17z m679
-52 c0 -5 -8 -15 -17 -22 -16 -12 -17 -12 -6 2 7 9 10 19 6 22 -3 4 -1 7 5 7
7 0 12 -4 12 -9z m177 -77 c-3 -3 -12 -4 -19 -1 -8 3 -5 6 6 6 11 1 17 -2 13
-5z m-627 -124 c0 -5 -5 -10 -11 -10 -5 0 -7 5 -4 10 3 6 8 10 11 10 2 0 4 -4
4 -10z m217 -145 c0 -8 -4 -12 -9 -9 -5 3 -6 10 -3 15 9 13 12 11 12 -6z
m1506 -26 c-8 -8 -13 -7 -18 2 -5 8 -4 10 3 5 7 -4 12 -2 12 5 0 7 3 9 7 6 4
-4 2 -12 -4 -18z m-1403 -32 c0 -8 -7 -14 -15 -14 -11 0 -12 4 -4 14 6 7 13
13 15 13 2 0 4 -6 4 -13z"/>
<path d="M4613 4966 c0 -8 4 -13 8 -10 4 2 9 0 11 -6 2 -6 9 0 17 12 13 20 12
22 -1 11 -10 -9 -18 -9 -25 -2 -6 6 -10 5 -10 -5z"/>
<path d="M4786 4865 c10 -8 23 -15 28 -15 6 0 1 7 -10 15 -10 8 -23 15 -28 15
-6 0 -1 -7 10 -15z"/>
<path d="M4026 4522 c-8 -13 7 -29 27 -29 16 0 16 2 0 19 -18 20 -20 21 -27
10z"/>
<path d="M4079 4527 c-1 -1 -3 -19 -4 -39 -2 -29 1 -38 14 -39 11 0 12 -2 3
-6 -7 -3 -19 0 -26 6 -10 8 -17 7 -26 -4 -9 -10 -9 -15 -1 -15 6 0 11 5 11 11
0 6 7 3 16 -6 9 -8 13 -22 10 -30 -8 -23 16 -30 31 -9 12 16 13 15 7 -15 -6
-27 -4 -32 6 -26 10 6 12 4 7 -8 -3 -9 -3 -16 1 -14 4 1 32 -24 63 -55 31 -31
76 -69 99 -84 39 -26 43 -27 55 -11 16 22 28 22 16 -1 -6 -12 -5 -23 5 -37 8
-10 14 -14 14 -9 0 6 -5 15 -11 21 -8 8 -6 14 7 20 29 14 60 10 56 -7 -2 -8 0
-11 5 -7 4 5 9 13 9 18 1 5 2 14 3 20 0 5 5 8 10 5 12 -8 -14 89 -36 136 -10
21 -21 38 -25 38 -5 0 -8 8 -8 17 0 9 -3 13 -6 10 -4 -3 -15 5 -26 18 -11 14
-26 25 -34 25 -8 0 -14 5 -14 10 0 6 -4 10 -9 10 -5 0 -26 8 -47 17 -22 9 -48
18 -59 20 -11 2 -27 6 -35 10 -14 6 -78 14 -81 10z m24 -20 c17 10 47 11 41 1
-4 -5 -12 -7 -19 -4 -8 3 -15 0 -17 -6 -5 -14 -28 -1 -27 15 0 9 2 8 6 -1 2
-6 10 -9 16 -5z m-3 -107 c0 -5 -5 -10 -11 -10 -5 0 -7 5 -4 10 3 6 8 10 11
10 2 0 4 -4 4 -10z"/>
<path d="M4050 4480 c0 -5 5 -10 11 -10 5 0 7 5 4 10 -3 6 -8 10 -11 10 -2 0
-4 -4 -4 -10z"/>
<path d="M4026 4463 c-6 -14 -5 -15 5 -6 7 7 10 15 7 18 -3 3 -9 -2 -12 -12z"/>
<path d="M3335 4220 c3 -5 8 -10 11 -10 2 0 4 5 4 10 0 6 -5 10 -11 10 -5 0
-7 -4 -4 -10z"/>
<path d="M4393 4155 c11 -8 14 -15 7 -18 -6 -3 -6 -5 1 -3 22 4 18 32 -5 33
-20 2 -20 1 -3 -12z"/>
<path d="M4426 4118 c3 -5 10 -6 15 -3 13 9 11 12 -6 12 -8 0 -12 -4 -9 -9z"/>
<path d="M5900 5468 c0 -9 7 -19 16 -22 15 -6 15 -4 3 11 -7 10 -15 20 -16 22
-2 2 -3 -3 -3 -11z"/>
<path d="M6060 5288 c0 -9 7 -19 16 -22 15 -6 15 -4 3 11 -7 10 -15 20 -16 22
-2 2 -3 -3 -3 -11z"/>
<path d="M1935 4420 c3 -5 8 -10 11 -10 2 0 4 5 4 10 0 6 -5 10 -11 10 -5 0
-7 -4 -4 -10z"/>
<path d="M1935 4390 c-3 -5 -1 -10 4 -10 6 0 11 5 11 10 0 6 -2 10 -4 10 -3 0
-8 -4 -11 -10z"/>
<path d="M1949 4218 c-5 -9 -5 -48 -1 -43 6 6 11 45 5 45 -2 0 -4 -1 -4 -2z"/>
<path d="M1967 4109 c7 -7 15 -10 18 -7 3 3 -2 9 -12 12 -14 6 -15 5 -6 -5z"/>
<path d="M3370 3510 c0 -6 10 -10 23 -11 20 0 21 -1 3 -8 -19 -7 -19 -8 2 -13
25 -7 38 5 19 19 -20 16 -47 23 -47 13z"/>
<path d="M2914 2996 c1 -8 5 -18 8 -22 4 -3 5 1 4 10 -1 8 -5 18 -8 22 -4 3
-5 -1 -4 -10z"/>
<path d="M3406 2782 c-3 -5 1 -9 9 -9 8 0 12 4 9 9 -3 4 -7 8 -9 8 -2 0 -6 -4
-9 -8z"/>
<path d="M4580 6606 c0 -2 7 -7 16 -10 8 -3 12 -2 9 4 -6 10 -25 14 -25 6z"/>
<path d="M4905 6550 c4 -6 11 -8 16 -5 14 9 11 15 -7 15 -8 0 -12 -5 -9 -10z"/>
<path d="M5911 6153 c-1 -17 16 -25 25 -12 4 7 3 9 -4 5 -5 -3 -13 0 -15 6 -4
9 -6 10 -6 1z"/>
<path d="M2700 6109 c0 -5 5 -7 10 -4 6 3 10 8 10 11 0 2 -4 4 -10 4 -5 0 -10
-5 -10 -11z"/>
<path d="M6215 5880 c3 -5 12 -7 20 -3 21 7 19 13 -6 13 -11 0 -18 -4 -14 -10z"/>
<path d="M6496 5575 c-4 -11 -4 -16 0 -12 4 4 13 -1 19 -10 11 -15 13 -13 13
11 0 17 -4 23 -8 16 -6 -9 -9 -9 -12 1 -3 9 -7 7 -12 -6z"/>
<path d="M6815 4620 c3 -5 8 -10 11 -10 2 0 4 5 4 10 0 6 -5 10 -11 10 -5 0
-7 -4 -4 -10z"/>
<path d="M495 4120 c3 -5 8 -10 11 -10 2 0 4 5 4 10 0 6 -5 10 -11 10 -5 0 -7
-4 -4 -10z"/>
<path d="M510 4000 c0 -5 5 -10 11 -10 5 0 7 5 4 10 -3 6 -8 10 -11 10 -2 0
-4 -4 -4 -10z"/>
<path d="M970 2794 c0 -6 18 -25 40 -43 22 -17 40 -29 40 -26 0 7 -39 45 -46
45 -4 0 -13 8 -20 18 -7 9 -14 12 -14 6z"/>
<path d="M3650 2140 c0 -5 7 -7 15 -4 8 4 15 8 15 10 0 2 -7 4 -15 4 -8 0 -15
-4 -15 -10z"/>
<path d="M1645 1920 c3 -5 8 -10 11 -10 2 0 4 5 4 10 0 6 -5 10 -11 10 -5 0
-7 -4 -4 -10z"/>
<path d="M1766 1843 c-6 -14 -5 -15 5 -6 7 7 10 15 7 18 -3 3 -9 -2 -12 -12z"/>
<path d="M2330 1498 c0 -4 4 -8 9 -8 6 0 12 4 15 8 3 5 -1 9 -9 9 -8 0 -15 -4
-15 -9z"/>
<path d="M3115 1230 c-3 -5 -1 -10 4 -10 6 0 11 5 11 10 0 6 -2 10 -4 10 -3 0
-8 -4 -11 -10z"/>
<path d="M3601 1134 c0 -11 3 -14 6 -6 3 7 2 16 -1 19 -3 4 -6 -2 -5 -13z"/>
<path d="M6257 7739 c7 -7 15 -10 18 -7 3 3 -2 9 -12 12 -14 6 -15 5 -6 -5z"/>
<path d="M6819 7448 c15 -21 31 -23 31 -6 0 6 -3 8 -7 5 -3 -4 -13 -1 -22 6
-14 11 -14 10 -2 -5z"/>
<path d="M7058 7283 c6 -2 18 -2 25 0 6 3 1 5 -13 5 -14 0 -19 -2 -12 -5z"/>
<path d="M7280 7105 c14 -17 30 -20 30 -4 0 5 -4 7 -10 4 -5 -3 -10 -1 -10 4
0 6 -5 11 -11 11 -8 0 -8 -5 1 -15z"/>
<path d="M7795 6530 c-3 -5 -1 -10 4 -10 6 0 11 5 11 10 0 6 -2 10 -4 10 -3 0
-8 -4 -11 -10z"/>
<path d="M8387 4973 c-4 -3 -7 -11 -7 -17 0 -6 5 -5 12 2 6 6 9 14 7 17 -3 3
-9 2 -12 -2z"/>
<path d="M2366 1057 c3 -10 9 -15 12 -12 3 3 0 11 -7 18 -10 9 -11 8 -5 -6z"/>
<path d="M2986 862 c-3 -5 1 -9 9 -9 8 0 12 4 9 9 -3 4 -7 8 -9 8 -2 0 -6 -4
-9 -8z"/>
</g>
</svg>
